<svg width="695" height="93" viewBox="0 0 695 93" fill="none" xmlns="http://www.w3.org/2000/svg">
<rect x="1.5" y="1.5" width="692" height="90" rx="45" fill="url(#paint0_linear_145_3)" stroke="black" stroke-width="3"/>
<path d="M257.193 74H256.305L278.431 22.2L279.245 21.83L297.893 74H291.603L285.831 57.72H264.223L257.193 74ZM276.137 30.192L264.519 56.98H285.609L276.137 30.192ZM302.356 18.574H307.536V46.176C308.374 43.9067 309.928 41.7607 312.198 39.738C314.467 37.7153 317.032 36.704 319.894 36.704C329.908 36.704 334.916 42.5747 334.916 54.316C334.916 67.636 328.453 74.296 315.528 74.296C311.729 74.296 307.338 73.6793 302.356 72.446V18.574ZM319.82 37.296C316.761 37.296 313.998 38.628 311.532 41.292C309.065 43.9067 307.733 46.2747 307.536 48.396V72.002C310.545 73.1367 313.184 73.704 315.454 73.704C324.975 73.704 329.736 67.2167 329.736 54.242C329.736 42.9447 326.43 37.296 319.82 37.296ZM358.339 74.296C353.159 74.296 348.941 72.816 345.685 69.856C342.429 66.896 340.801 62.3327 340.801 56.166C340.801 49.9993 342.478 45.214 345.833 41.81C349.237 38.406 353.529 36.704 358.709 36.704C363.938 36.704 368.181 38.184 371.437 41.144C374.693 44.104 376.321 48.6673 376.321 54.834C376.321 61.0007 374.619 65.786 371.215 69.19C367.86 72.594 363.568 74.296 358.339 74.296ZM358.857 37.296C355.107 37.296 351.999 38.9733 349.533 42.328C347.066 45.6333 345.833 50.2707 345.833 56.24C345.833 62.16 346.967 66.5507 349.237 69.412C351.506 72.2733 354.515 73.704 358.265 73.704C362.014 73.704 365.122 72.0513 367.589 68.746C370.055 65.3913 371.289 60.754 371.289 54.834C371.289 48.8647 370.154 44.4493 367.885 41.588C365.615 38.7267 362.606 37.296 358.857 37.296ZM387.389 65.49C387.389 69.3873 388.425 71.8787 390.497 72.964C391.484 73.4573 392.742 73.704 394.271 73.704C397.379 73.704 400.142 72.52 402.559 70.152C405.026 67.784 406.358 65.5887 406.555 63.566V37H411.735V68.746C411.735 70.1767 412.006 71.2867 412.549 72.076C413.141 72.816 413.733 73.2107 414.325 73.26L415.139 73.408H417.433V74H412.919C410.896 74 409.342 73.556 408.257 72.668C407.221 71.78 406.678 70.892 406.629 70.004L406.555 68.746V65.564C405.667 67.6853 404.088 69.6833 401.819 71.558C399.55 73.3833 397.058 74.296 394.345 74.296C391.681 74.296 389.486 74.0493 387.759 73.556C386.082 73.0133 384.873 72.2733 384.133 71.336C382.85 69.8067 382.209 67.8333 382.209 65.416V37H387.389V65.49ZM420.79 37.592V37H422.344V29.6H427.524V37H438.846V37.592H427.524V64.528C427.524 67.7347 427.87 70.0533 428.56 71.484C429.3 72.9147 430.805 73.63 433.074 73.63C435.393 73.63 437.736 73.1613 440.104 72.224L440.326 72.816C437.86 73.7533 435.023 74.222 431.816 74.222C428.659 74.222 426.291 73.5807 424.712 72.298C423.134 70.966 422.344 68.3513 422.344 64.454V37.592H420.79Z" fill="black"/>
<path d="M257.193 74V75H257.85L258.111 74.3964L257.193 74ZM256.305 74L255.385 73.6072L254.79 75H256.305V74ZM278.431 22.2L278.017 21.2896L277.664 21.4502L277.511 21.8072L278.431 22.2ZM279.245 21.83L280.187 21.4934L279.821 20.4698L278.831 20.9196L279.245 21.83ZM297.893 74V75H299.312L298.835 73.6634L297.893 74ZM291.603 74L290.66 74.3342L290.897 75H291.603V74ZM285.831 57.72L286.773 57.3858L286.537 56.72H285.831V57.72ZM264.223 57.72V56.72H263.566L263.305 57.3236L264.223 57.72ZM276.137 30.192L277.08 29.8586L276.232 27.4603L275.22 29.7941L276.137 30.192ZM264.519 56.98L263.602 56.5821L262.995 57.98H264.519V56.98ZM285.609 56.98V57.98H287.023L286.552 56.6466L285.609 56.98ZM257.193 73H256.305V75H257.193V73ZM257.225 74.3928L279.351 22.5928L277.511 21.8072L255.385 73.6072L257.225 74.3928ZM278.845 23.1104L279.659 22.7404L278.831 20.9196L278.017 21.2896L278.845 23.1104ZM278.303 22.1666L296.951 74.3366L298.835 73.6634L280.187 21.4934L278.303 22.1666ZM297.893 73H291.603V75H297.893V73ZM292.545 73.6658L286.773 57.3858L284.888 58.0542L290.66 74.3342L292.545 73.6658ZM285.831 56.72H264.223V58.72H285.831V56.72ZM263.305 57.3236L256.275 73.6036L258.111 74.3964L265.141 58.1164L263.305 57.3236ZM275.22 29.7941L263.602 56.5821L265.436 57.3779L277.054 30.5899L275.22 29.7941ZM264.519 57.98H285.609V55.98H264.519V57.98ZM286.552 56.6466L277.08 29.8586L275.194 30.5254L284.666 57.3134L286.552 56.6466ZM302.356 18.574V17.574H301.356V18.574H302.356ZM307.536 18.574H308.536V17.574H307.536V18.574ZM307.536 46.176H306.536L308.474 46.5226L307.536 46.176ZM312.198 39.738L311.532 38.9915L312.198 39.738ZM302.356 72.446H301.356V73.2287L302.115 73.4167L302.356 72.446ZM311.532 41.292L312.259 41.9782L312.265 41.9714L311.532 41.292ZM307.536 48.396L306.54 48.3034L306.536 48.3496V48.396H307.536ZM307.536 72.002H306.536V72.6937L307.183 72.9377L307.536 72.002ZM302.356 19.574H307.536V17.574H302.356V19.574ZM306.536 18.574V46.176H308.536V18.574H306.536ZM308.474 46.5226C309.243 44.4414 310.685 42.4256 312.863 40.4845L311.532 38.9915C309.171 41.0957 307.506 43.372 306.598 45.8293L308.474 46.5226ZM312.863 40.4845C314.961 38.614 317.294 37.704 319.894 37.704V35.704C316.771 35.704 313.972 36.8167 311.532 38.9915L312.863 40.4845ZM319.894 37.704C324.701 37.704 328.139 39.1058 330.399 41.7559C332.686 44.4366 333.916 48.564 333.916 54.316H335.916C335.916 48.3266 334.642 43.6481 331.921 40.4581C329.174 37.2376 325.1 35.704 319.894 35.704V37.704ZM333.916 54.316C333.916 60.8293 332.335 65.5292 329.351 68.6046C326.372 71.6744 321.828 73.296 315.528 73.296V75.296C322.152 75.296 327.302 73.5875 330.786 69.9974C334.265 66.4128 335.916 61.1227 335.916 54.316H333.916ZM315.528 73.296C311.832 73.296 307.525 72.6955 302.596 71.4753L302.115 73.4167C307.151 74.6632 311.625 75.296 315.528 75.296V73.296ZM303.356 72.446V18.574H301.356V72.446H303.356ZM319.82 36.296C316.43 36.296 313.415 37.7858 310.798 40.6126L312.265 41.9714C314.581 39.4702 317.091 38.296 319.82 38.296V36.296ZM310.804 40.6058C308.28 43.2813 306.768 45.8523 306.54 48.3034L308.531 48.4886C308.698 46.6971 309.85 44.532 312.259 41.9782L310.804 40.6058ZM306.536 48.396V72.002H308.536V48.396H306.536ZM307.183 72.9377C310.261 74.0985 313.025 74.704 315.454 74.704V72.704C313.344 72.704 310.828 72.1748 307.888 71.0663L307.183 72.9377ZM315.454 74.704C320.466 74.704 324.367 72.9796 326.971 69.4301C329.534 65.9384 330.736 60.8221 330.736 54.242H328.736C328.736 60.6365 327.557 65.2512 325.359 68.2469C323.203 71.1848 319.962 72.704 315.454 72.704V74.704ZM330.736 54.242C330.736 48.5285 329.905 44.0795 328.12 41.0275C326.285 37.8928 323.476 36.296 319.82 36.296V38.296C322.774 38.296 324.922 39.5236 326.393 42.0375C327.913 44.6342 328.736 48.6581 328.736 54.242H330.736ZM345.685 69.856L346.357 69.1161L345.685 69.856ZM345.833 41.81L345.126 41.1029L345.121 41.1081L345.833 41.81ZM371.437 41.144L372.109 40.4041L371.437 41.144ZM371.215 69.19L370.508 68.4829L370.503 68.4881L371.215 69.19ZM349.533 42.328L350.334 42.9261L350.338 42.9204L349.533 42.328ZM349.237 69.412L350.02 68.7906L349.237 69.412ZM367.589 68.746L368.39 69.3441L368.394 69.3384L367.589 68.746ZM358.339 73.296C353.361 73.296 349.398 71.8797 346.357 69.1161L345.012 70.5959C348.484 73.7523 352.957 75.296 358.339 75.296V73.296ZM346.357 69.1161C343.383 66.4119 341.801 62.1674 341.801 56.166H339.801C339.801 62.4979 341.475 67.3801 345.012 70.5959L346.357 69.1161ZM341.801 56.166C341.801 50.1825 343.424 45.6789 346.545 42.5119L345.121 41.1081C341.532 44.7491 339.801 49.8162 339.801 56.166H341.801ZM346.54 42.5171C349.741 39.3158 353.772 37.704 358.709 37.704V35.704C353.286 35.704 348.732 37.4962 345.126 41.1029L346.54 42.5171ZM358.709 37.704C363.739 37.704 367.726 39.1219 370.764 41.8839L372.109 40.4041C368.636 37.2461 364.137 35.704 358.709 35.704V37.704ZM370.764 41.8839C373.739 44.5881 375.321 48.8326 375.321 54.834H377.321C377.321 48.5021 375.647 43.6199 372.109 40.4041L370.764 41.8839ZM375.321 54.834C375.321 60.8135 373.675 65.3152 370.508 68.4829L371.922 69.8971C375.562 66.2568 377.321 61.1878 377.321 54.834H375.321ZM370.503 68.4881C367.355 71.6824 363.328 73.296 358.339 73.296V75.296C363.808 75.296 368.366 73.5056 371.927 69.8919L370.503 68.4881ZM358.857 36.296C354.751 36.296 351.358 38.1574 348.727 41.7356L350.338 42.9204C352.641 39.7893 355.464 38.296 358.857 38.296V36.296ZM348.731 41.7299C346.09 45.27 344.833 50.148 344.833 56.24H346.833C346.833 50.3933 348.043 45.9967 350.334 42.9261L348.731 41.7299ZM344.833 56.24C344.833 62.2557 345.98 66.915 348.453 70.0334L350.02 68.7906C347.955 66.1863 346.833 62.0643 346.833 56.24H344.833ZM348.453 70.0334C350.918 73.1412 354.22 74.704 358.265 74.704V72.704C354.811 72.704 352.094 71.4054 350.02 68.7906L348.453 70.0334ZM358.265 74.704C362.365 74.704 365.757 72.8731 368.39 69.3441L366.787 68.1479C364.488 71.2295 361.664 72.704 358.265 72.704V74.704ZM368.394 69.3384C371.031 65.7531 372.289 60.8801 372.289 54.834H370.289C370.289 60.6279 369.08 65.0295 366.783 68.1536L368.394 69.3384ZM372.289 54.834C372.289 48.7713 371.142 44.0861 368.668 40.9666L367.101 42.2094C369.166 44.8126 370.289 48.958 370.289 54.834H372.289ZM368.668 40.9666C366.203 37.8588 362.902 36.296 358.857 36.296V38.296C362.31 38.296 365.027 39.5946 367.101 42.2094L368.668 40.9666ZM390.497 72.964L390.033 73.8498L390.041 73.8542L390.05 73.8584L390.497 72.964ZM402.559 70.152L401.866 69.4306L401.859 69.4376L402.559 70.152ZM406.555 63.566L407.55 63.6631L407.555 63.6147V63.566H406.555ZM406.555 37V36H405.555V37H406.555ZM411.735 37H412.735V36H411.735V37ZM412.549 72.076L411.725 72.6425L411.746 72.6724L411.768 72.7007L412.549 72.076ZM414.325 73.26L414.504 72.2761L414.456 72.2675L414.408 72.2635L414.325 73.26ZM415.139 73.408L414.96 74.3919L415.049 74.408H415.139V73.408ZM417.433 73.408H418.433V72.408H417.433V73.408ZM417.433 74V75H418.433V74H417.433ZM408.257 72.668L407.606 73.4273L407.615 73.4347L407.624 73.442L408.257 72.668ZM406.629 70.004L407.627 69.9485L407.627 69.9453L406.629 70.004ZM406.555 68.746H405.555V68.7754L405.557 68.8047L406.555 68.746ZM406.555 65.564H407.555L405.633 65.1779L406.555 65.564ZM401.819 71.558L402.446 72.3373L402.456 72.329L401.819 71.558ZM387.759 73.556L387.451 74.5074L387.468 74.5128L387.484 74.5175L387.759 73.556ZM384.133 71.336L384.918 70.7164L384.909 70.7047L384.899 70.6934L384.133 71.336ZM382.209 37V36H381.209V37H382.209ZM387.389 37H388.389V36H387.389V37ZM386.389 65.49C386.389 69.4974 387.451 72.4972 390.033 73.8498L390.961 72.0782C389.399 71.2601 388.389 69.2773 388.389 65.49H386.389ZM390.05 73.8584C391.218 74.4427 392.643 74.704 394.271 74.704V72.704C392.84 72.704 391.749 72.472 390.944 72.0696L390.05 73.8584ZM394.271 74.704C397.665 74.704 400.673 73.3996 403.259 70.8664L401.859 69.4376C399.611 71.6404 397.093 72.704 394.271 72.704V74.704ZM403.252 70.8734C405.782 68.444 407.318 66.0391 407.55 63.6631L405.56 63.4689C405.397 65.1383 404.269 67.124 401.867 69.4306L403.252 70.8734ZM407.555 63.566V37H405.555V63.566H407.555ZM406.555 38H411.735V36H406.555V38ZM410.735 37V68.746H412.735V37H410.735ZM410.735 68.746C410.735 70.2848 411.024 71.6229 411.725 72.6425L413.373 71.5095C412.989 70.9505 412.735 70.0685 412.735 68.746H410.735ZM411.768 72.7007C412.433 73.5312 413.25 74.1739 414.242 74.2565L414.408 72.2635C414.216 72.2474 413.85 72.1009 413.33 71.4513L411.768 72.7007ZM414.146 74.2439L414.96 74.3919L415.318 72.4241L414.504 72.2761L414.146 74.2439ZM415.139 74.408H417.433V72.408H415.139V74.408ZM416.433 73.408V74H418.433V73.408H416.433ZM417.433 73H412.919V75H417.433V73ZM412.919 73C411.028 73 409.733 72.5833 408.89 71.894L407.624 73.442C408.952 74.5287 410.765 75 412.919 75V73ZM408.908 71.9087C407.97 71.1047 407.655 70.4483 407.627 69.9485L405.631 70.0595C405.701 71.3357 406.472 72.4553 407.606 73.4273L408.908 71.9087ZM407.627 69.9453L407.553 68.6873L405.557 68.8047L405.631 70.0627L407.627 69.9453ZM407.555 68.746V65.564H405.555V68.746H407.555ZM405.633 65.1779C404.822 67.1137 403.361 68.9875 401.182 70.787L402.456 72.329C404.816 70.3792 406.512 68.257 407.477 65.9501L405.633 65.1779ZM401.192 70.7788C399.087 72.4725 396.813 73.296 394.345 73.296V75.296C397.304 75.296 400.013 74.2942 402.446 72.3372L401.192 70.7788ZM394.345 73.296C391.734 73.296 389.639 73.0532 388.034 72.5945L387.484 74.5175C389.332 75.0455 391.628 75.296 394.345 75.296V73.296ZM388.067 72.6046C386.493 72.0954 385.49 71.4407 384.918 70.7164L383.348 71.9556C384.256 73.106 385.67 73.9312 387.451 74.5074L388.067 72.6046ZM384.899 70.6934C383.798 69.3801 383.209 67.6499 383.209 65.416H381.209C381.209 68.0168 381.903 70.2333 383.367 71.9786L384.899 70.6934ZM383.209 65.416V37H381.209V65.416H383.209ZM382.209 38H387.389V36H382.209V38ZM386.389 37V65.49H388.389V37H386.389ZM420.79 37.592H419.79V38.592H420.79V37.592ZM420.79 37V36H419.79V37H420.79ZM422.344 37V38H423.344V37H422.344ZM422.344 29.6V28.6H421.344V29.6H422.344ZM427.524 29.6H428.524V28.6H427.524V29.6ZM427.524 37H426.524V38H427.524V37ZM438.846 37H439.846V36H438.846V37ZM438.846 37.592V38.592H439.846V37.592H438.846ZM427.524 37.592V36.592H426.524V37.592H427.524ZM428.56 71.484L427.66 71.9187L427.666 71.9312L427.672 71.9434L428.56 71.484ZM440.104 72.224L441.041 71.8729L440.683 70.9194L439.736 71.2942L440.104 72.224ZM440.326 72.816L440.681 73.7508L441.612 73.3971L441.263 72.4649L440.326 72.816ZM424.712 72.298L424.067 73.0623L424.074 73.0683L424.082 73.0741L424.712 72.298ZM422.344 37.592H423.344V36.592H422.344V37.592ZM421.79 37.592V37H419.79V37.592H421.79ZM420.79 38H422.344V36H420.79V38ZM423.344 37V29.6H421.344V37H423.344ZM422.344 30.6H427.524V28.6H422.344V30.6ZM426.524 29.6V37H428.524V29.6H426.524ZM427.524 38H438.846V36H427.524V38ZM437.846 37V37.592H439.846V37H437.846ZM438.846 36.592H427.524V38.592H438.846V36.592ZM426.524 37.592V64.528H428.524V37.592H426.524ZM426.524 64.528C426.524 67.7622 426.865 70.2737 427.66 71.9187L429.461 71.0492C428.874 69.833 428.524 67.7071 428.524 64.528H426.524ZM427.672 71.9434C428.651 73.8365 430.605 74.63 433.074 74.63V72.63C431.005 72.63 429.949 71.9928 429.448 71.0246L427.672 71.9434ZM433.074 74.63C435.531 74.63 437.999 74.1329 440.472 73.1538L439.736 71.2942C437.474 72.1897 435.255 72.63 433.074 72.63V74.63ZM439.168 72.5751L439.39 73.1671L441.263 72.4649L441.041 71.8729L439.168 72.5751ZM439.971 71.8812C437.639 72.7673 434.927 73.222 431.816 73.222V75.222C435.119 75.222 438.08 74.7394 440.681 73.7508L439.971 71.8812ZM431.816 73.222C428.768 73.222 426.668 72.5988 425.343 71.5219L424.082 73.0741C425.914 74.5626 428.549 75.222 431.816 75.222V73.222ZM425.357 71.5337C424.138 70.5052 423.344 68.2962 423.344 64.454H421.344C421.344 68.4065 422.129 71.4268 424.067 73.0623L425.357 71.5337ZM423.344 64.454V37.592H421.344V64.454H423.344ZM422.344 36.592H420.79V38.592H422.344V36.592Z" fill="black"/>
<path d="M214.556 74H214.442C214.429 69.6252 214.007 65.7341 213.188 62.4333C212.358 59.0883 211.096 56.254 209.437 54.0092C207.8 51.7684 205.61 49.9895 203.082 48.8454C200.607 47.7204 197.682 47.1286 194.386 47.0784C194.257 47.0784 194.129 47.0784 194 47.0746V46.9246C194.129 46.9246 194.258 46.9246 194.386 46.9284C197.59 46.9374 200.445 46.4161 202.876 45.3819C205.388 44.3178 207.58 42.6171 209.235 40.4475C210.952 38.2178 212.262 35.3685 213.127 31.9792C213.992 28.5899 214.434 24.5541 214.443 20H214.556C214.556 24.6426 215.02 28.7346 215.93 32.1629C216.818 35.5087 218.158 38.3198 219.913 40.518C221.605 42.6476 223.813 44.3102 226.327 45.3489C228.802 46.3831 231.722 46.9134 234.998 46.9239V47.0739C231.698 47.0844 228.765 47.6304 226.273 48.6969C223.761 49.7645 221.562 51.4551 219.885 53.6087C218.151 55.8205 216.824 58.6338 215.942 61.9811C215.042 65.3809 214.578 69.4242 214.557 73.9985L214.556 74ZM196.273 47.0191C198.823 47.2306 201.115 47.7946 203.12 48.7037C205.666 49.8562 207.87 51.6478 209.519 53.9042C211.19 56.1663 212.461 59.02 213.296 62.3868C213.957 65.0516 214.361 68.0989 214.501 71.4717C214.651 67.9077 215.101 64.7074 215.832 61.9331C216.722 58.5663 218.058 55.7297 219.807 53.5022C221.495 51.332 223.709 49.6283 226.239 48.5521C228.222 47.7076 230.487 47.1826 232.99 47.0004C230.508 46.8196 228.261 46.3149 226.291 45.4921C223.76 44.4457 221.538 42.7712 219.834 40.6268C218.066 38.4113 216.716 35.5807 215.822 32.2124C215.089 29.4509 214.645 26.2618 214.497 22.7053C214.347 26.1801 213.927 29.3054 213.234 32.0264C212.365 35.4382 211.046 38.3078 209.316 40.5548C207.65 42.7398 205.442 44.4528 202.912 45.5251C200.958 46.3576 198.732 46.8564 196.273 47.0191Z" fill="black" stroke="#231F20" stroke-width="2.23624" stroke-miterlimit="10"/>
<path d="M475.556 74H475.442C475.429 69.6252 475.007 65.7341 474.188 62.4333C473.358 59.0883 472.096 56.254 470.437 54.0092C468.8 51.7684 466.61 49.9895 464.082 48.8454C461.607 47.7204 458.682 47.1286 455.386 47.0784C455.257 47.0784 455.129 47.0784 455 47.0746V46.9246C455.129 46.9246 455.258 46.9246 455.386 46.9284C458.59 46.9374 461.445 46.4161 463.876 45.3819C466.388 44.3178 468.58 42.6171 470.235 40.4475C471.952 38.2178 473.262 35.3685 474.127 31.9792C474.992 28.5899 475.434 24.5541 475.443 20H475.556C475.556 24.6426 476.02 28.7346 476.93 32.1629C477.818 35.5087 479.158 38.3198 480.913 40.518C482.605 42.6476 484.813 44.3102 487.327 45.3489C489.802 46.3831 492.722 46.9134 495.998 46.9239V47.0739C492.698 47.0844 489.765 47.6304 487.273 48.6969C484.761 49.7645 482.562 51.4551 480.885 53.6087C479.151 55.8205 477.824 58.6338 476.942 61.9811C476.042 65.3809 475.578 69.4242 475.557 73.9985L475.556 74ZM457.273 47.0191C459.823 47.2306 462.115 47.7946 464.12 48.7037C466.666 49.8562 468.87 51.6478 470.519 53.9042C472.19 56.1663 473.461 59.02 474.296 62.3868C474.957 65.0516 475.361 68.0989 475.501 71.4717C475.651 67.9077 476.101 64.7074 476.832 61.9331C477.722 58.5663 479.058 55.7297 480.807 53.5022C482.495 51.332 484.709 49.6283 487.239 48.5521C489.222 47.7076 491.487 47.1826 493.99 47.0004C491.508 46.8196 489.261 46.3149 487.291 45.4921C484.76 44.4457 482.538 42.7712 480.834 40.6268C479.066 38.4113 477.716 35.5807 476.822 32.2124C476.089 29.4509 475.645 26.2618 475.497 22.7053C475.347 26.1801 474.927 29.3054 474.234 32.0264C473.365 35.4382 472.046 38.3078 470.316 40.5548C468.65 42.7398 466.442 44.4528 463.912 45.5251C461.958 46.3576 459.732 46.8564 457.273 47.0191Z" fill="black" stroke="#231F20" stroke-width="2.23624" stroke-miterlimit="10"/>
<defs>
<linearGradient id="paint0_linear_145_3" x1="24.5" y1="56.6974" x2="675.5" y2="56.6974" gradientUnits="userSpaceOnUse">
<stop stop-color="#F1B161"/>
<stop offset="0.359375" stop-color="#EEEEF0"/>
<stop offset="0.65625" stop-color="#A68DF1"/>
<stop offset="1" stop-color="#EC9FA2"/>
</linearGradient>
</defs>
</svg>
