<svg width="1384" height="885" viewBox="0 0 1384 885" fill="none" xmlns="http://www.w3.org/2000/svg">
<path d="M127.168 822.109C100.421 832.945 74.5742 838.546 54.4386 838.884C44.3655 839.053 35.8036 837.904 29.2948 835.495C22.7868 833.087 18.4844 829.484 16.5974 824.826C14.7104 820.168 15.2919 814.587 18.2883 808.328C21.2852 802.068 26.6328 795.284 33.9831 788.394C48.6762 774.622 71.1329 760.653 97.8798 749.817C124.627 738.981 150.474 733.38 170.609 733.042C180.682 732.873 189.244 734.022 195.753 736.431C202.261 738.839 206.563 742.442 208.45 747.1C210.337 751.758 209.756 757.339 206.759 763.598C203.763 769.858 198.415 776.642 191.065 783.532C176.372 797.304 153.915 811.273 127.168 822.109Z" stroke="black" stroke-width="3"/>
<path d="M142.057 806.647C127.106 827.917 110.278 844.784 95.2023 854.878C87.6604 859.928 80.6181 863.241 74.5145 864.598C68.4118 865.955 63.395 865.33 59.6909 862.726C55.9868 860.122 53.7 855.613 52.9101 849.412C52.1201 843.209 52.8529 835.461 55.0504 826.655C59.4432 809.052 69.6163 787.506 84.5674 766.236C99.5185 744.966 116.346 728.098 131.422 718.005C138.964 712.955 146.007 709.642 152.11 708.285C158.213 706.928 163.23 707.553 166.934 710.157C170.638 712.761 172.925 717.269 173.714 723.471C174.505 729.673 173.772 737.422 171.574 746.228C167.181 763.831 157.008 785.376 142.057 806.647Z" stroke="black" stroke-width="2.70274"/>
<path d="M120.848 759.126L123.59 775.524L123.77 776.599L124.848 776.76L141.29 779.22L126.542 786.895L125.575 787.398L125.755 788.473L128.497 804.871L116.64 793.216L115.863 792.452L114.896 792.955L100.148 800.63L107.569 785.752L108.055 784.777L107.278 784.013L95.421 772.358L111.864 774.818L112.942 774.979L113.428 774.004L120.848 759.126Z" fill="url(#paint0_linear_137_40)" stroke="black" stroke-width="3"/>
<path d="M646.694 170.448C625.985 150.35 610.43 128.961 601.994 110.675C597.774 101.527 595.37 93.2295 594.947 86.3022C594.524 79.3758 596.084 73.9853 599.584 70.379C603.084 66.7726 608.425 65.0521 615.361 65.2676C622.298 65.4833 630.664 67.6378 639.934 71.5824C658.465 79.4675 680.308 94.3765 701.017 114.475C721.726 134.574 737.282 155.962 745.718 174.248C749.938 183.396 752.342 191.694 752.765 198.621C753.188 205.547 751.628 210.938 748.128 214.544C744.628 218.151 739.287 219.871 732.351 219.656C725.414 219.44 717.048 217.285 707.778 213.341C689.247 205.456 667.403 190.547 646.694 170.448Z" stroke="black" stroke-width="3"/>
<path d="M666.851 177.83C641.356 172.735 619.131 164.146 603.812 154.427C596.148 149.564 590.274 144.458 586.569 139.421C582.865 134.385 581.412 129.543 582.3 125.103C583.187 120.663 586.389 116.751 591.745 113.525C597.101 110.299 604.486 107.843 613.43 106.299C631.308 103.214 655.127 103.827 680.622 108.922C706.117 114.017 728.341 122.606 743.661 132.326C751.325 137.188 757.198 142.294 760.903 147.331C764.607 152.367 766.06 157.209 765.173 161.649C764.286 166.089 761.083 170.001 755.728 173.227C750.372 176.453 742.987 178.909 734.043 180.453C716.164 183.538 692.346 182.925 666.851 177.83Z" stroke="black" stroke-width="2.70274"/>
<circle cx="765.707" cy="158.754" r="8.5" transform="rotate(66.1975 765.707 158.754)" fill="black"/>
<circle cx="686.994" cy="203.311" r="8.5" transform="rotate(66.1975 686.994 203.311)" fill="black"/>
<path d="M146.243 140.104C161.719 139.592 173.518 150.921 173.518 150.921C173.518 150.921 187.724 127.369 202.543 128.796C217.362 130.224 224.736 138.431 226.02 155.789C227.305 173.146 188.567 225.846 188.567 225.846C188.567 225.846 131.981 198.458 124.427 176.194C116.872 153.931 133.119 140.539 146.243 140.104Z" fill="url(#paint1_linear_137_40)" stroke="black" stroke-width="3"/>
<path d="M213.797 152.086C221.334 158.057 222.374 168.161 222.374 168.161C222.374 168.161 238.56 162.71 245.007 169.337C251.453 175.964 251.65 182.813 245.288 191.55C238.927 200.288 199.415 209.695 199.415 209.695C199.415 209.695 183.609 173.999 188.971 160.42C194.333 146.841 207.406 147.021 213.797 152.086Z" fill="#F5F5F5" stroke="black" stroke-width="3"/>
<circle cx="1060" cy="777" r="43.5" transform="rotate(18.2723 1060 777)" fill="url(#paint2_linear_137_40)" stroke="black" stroke-width="3"/>
<ellipse cx="1053.78" cy="759.151" rx="3.5" ry="5" transform="rotate(18.2723 1053.78 759.151)" fill="black"/>
<ellipse cx="1075.62" cy="766.362" rx="3.5" ry="5" transform="rotate(18.2723 1075.62 766.362)" fill="black"/>
<path d="M1032.15 768.857C1026.71 783.377 1033.29 799.142 1047.43 805.496C1062.58 812.303 1080.92 804.548 1086.6 788.941" stroke="black" stroke-width="3"/>
<path d="M1176.89 92.3347C1179.71 89.0133 1180.72 82.7599 1180.72 84.0365C1180.72 85.3132 1182.02 89.0145 1184.55 92.3347C1187.07 95.6313 1190.3 96.803 1190.94 96.803C1191.58 96.803 1187.17 99.6491 1184.55 102.548C1181.28 106.186 1180.72 108.931 1180.72 110.208C1180.72 111.484 1180.64 106.749 1177.53 103.186C1174.89 100.158 1169.87 96.8029 1170.51 96.803C1171.15 96.8031 1174.35 95.3419 1176.89 92.3347Z" fill="black"/>
<path d="M1192.78 119.541C1196.61 115.014 1197.99 106.491 1197.99 108.231C1197.99 109.971 1199.76 115.016 1203.22 119.541C1206.65 124.034 1211.04 125.631 1211.91 125.631C1212.78 125.631 1206.78 129.51 1203.22 133.461C1198.75 138.42 1197.99 142.161 1197.99 143.901C1197.99 145.641 1197.88 139.187 1193.65 134.331C1190.04 130.204 1183.21 125.631 1184.08 125.631C1184.95 125.631 1189.3 123.64 1192.78 119.541Z" fill="black"/>
<path d="M1120.82 157.637C1085.81 99.8854 1160.2 62.5085 1160.2 62.5085C1160.2 62.5085 1132.1 97.5481 1150.58 134.003C1169.73 171.786 1218.3 173.44 1218.3 173.44C1218.3 173.44 1155.84 215.388 1120.82 157.637Z" fill="url(#paint3_linear_137_40)" stroke="black" stroke-width="3"/>
<path d="M1320 563.333C1340.62 563.333 1357.33 546.619 1357.33 526C1357.33 505.381 1340.62 488.667 1320 488.667C1299.38 488.667 1282.67 505.381 1282.67 526C1282.67 546.619 1299.38 563.333 1320 563.333Z" fill="url(#paint4_linear_137_40)" stroke="black" stroke-width="3" stroke-linecap="round" stroke-linejoin="round"/>
<path d="M1356.35 534.426C1368.58 545.829 1375.26 555.76 1372.84 560.56C1368.87 568.346 1342 559.178 1312.82 540.09C1283.64 521.002 1263.19 499.216 1267.16 491.434C1269.64 486.581 1282.77 489.066 1298.11 495.728" stroke="black" stroke-width="3" stroke-linecap="round" stroke-linejoin="round"/>
<defs>
<linearGradient id="paint0_linear_137_40" x1="120.5" y1="763.5" x2="115.5" y2="794.5" gradientUnits="userSpaceOnUse">
<stop stop-color="#F2B357"/>
<stop offset="0.317708" stop-color="#F5F5F5"/>
<stop offset="0.703125" stop-color="#613FE9"/>
<stop offset="1" stop-color="#EC9FA2"/>
</linearGradient>
<linearGradient id="paint1_linear_137_40" x1="169.042" y1="134.91" x2="187.356" y2="226.089" gradientUnits="userSpaceOnUse">
<stop stop-color="#7051EA"/>
<stop offset="0.302083" stop-color="#F2B357"/>
<stop offset="0.671875" stop-color="#F5F5F5"/>
<stop offset="1" stop-color="#EC9FA2"/>
</linearGradient>
<linearGradient id="paint2_linear_137_40" x1="1060" y1="732" x2="1060" y2="822" gradientUnits="userSpaceOnUse">
<stop stop-color="#F5F5F5"/>
<stop offset="0.416667" stop-color="#F4B85F"/>
<stop offset="0.770833" stop-color="#EC9FA2"/>
<stop offset="1" stop-color="#613FE9"/>
</linearGradient>
<linearGradient id="paint3_linear_137_40" x1="1123.5" y1="89.1965" x2="1201.2" y2="187.021" gradientUnits="userSpaceOnUse">
<stop stop-color="#613FE9"/>
<stop offset="0.21875" stop-color="#F5F5F5"/>
<stop offset="0.625" stop-color="#EC9FA2"/>
<stop offset="0.979167" stop-color="#F4B85F"/>
</linearGradient>
<linearGradient id="paint4_linear_137_40" x1="1320" y1="488.667" x2="1320" y2="563.333" gradientUnits="userSpaceOnUse">
<stop stop-color="#613FE9"/>
<stop offset="0.385417" stop-color="#F2B357"/>
<stop offset="0.671875" stop-color="#EC9FA2"/>
<stop offset="0.979167" stop-color="#F5F5F5"/>
</linearGradient>
</defs>
</svg>
