<svg width="226" height="197" viewBox="0 0 226 197" fill="none" xmlns="http://www.w3.org/2000/svg">
<path d="M127.168 134.109C100.421 144.945 74.5737 150.546 54.4381 150.884C44.365 151.053 35.8031 149.904 29.2943 147.495C22.7864 145.087 18.484 141.484 16.5969 136.826C14.7099 132.168 15.2914 126.587 18.2878 120.328C21.2847 114.068 26.6323 107.284 33.9827 100.394C48.6757 86.6217 71.1324 72.6529 97.8793 61.8167C124.626 50.9806 150.473 45.3799 170.609 45.0417C180.682 44.8725 189.244 46.022 195.753 48.4307C202.26 50.8391 206.563 54.4419 208.45 59.0997C210.337 63.7575 209.755 69.339 206.759 75.598C203.762 81.8577 198.415 88.6424 191.064 95.5321C176.371 109.304 153.914 123.273 127.168 134.109Z" stroke="black" stroke-width="3"/>
<path d="M142.058 118.647C127.107 139.917 110.279 156.784 95.2033 166.878C87.6614 171.928 80.619 175.241 74.5155 176.598C68.4128 177.955 63.3959 177.33 59.6919 174.726C55.9878 172.122 53.701 167.613 52.911 161.412C52.121 155.209 52.8539 147.461 55.0514 138.655C59.4442 121.052 69.6173 99.5064 84.5684 78.2363C99.5195 56.9661 116.347 40.0985 131.423 30.0046C138.965 24.955 146.007 21.6418 152.111 20.285C158.214 18.9283 163.231 19.5533 166.935 22.157C170.639 24.7606 172.926 29.2695 173.715 35.4711C174.505 41.6735 173.773 49.4217 171.575 58.2279C167.182 75.8311 157.009 97.3765 142.058 118.647Z" stroke="black" stroke-width="2.70274"/>
<path d="M120.848 71.1262L123.59 87.5243L123.769 88.5992L124.847 88.7604L141.29 91.2201L126.542 98.895L125.575 99.3981L125.755 100.473L128.496 116.871L116.64 105.216L115.863 104.452L114.896 104.955L100.148 112.63L107.568 97.7524L108.054 96.7771L107.277 96.0132L95.4205 84.3584L111.863 86.8181L112.941 86.9794L113.428 86.0041L120.848 71.1262Z" fill="url(#paint0_linear_132_382)" stroke="black" stroke-width="3"/>
<defs>
<linearGradient id="paint0_linear_132_382" x1="120.5" y1="75.5" x2="115.5" y2="106.5" gradientUnits="userSpaceOnUse">
<stop stop-color="#F2B357"/>
<stop offset="0.317708" stop-color="#F5F5F5"/>
<stop offset="0.703125" stop-color="#613FE9"/>
<stop offset="1" stop-color="#EC9FA2"/>
</linearGradient>
</defs>
</svg>
