<svg width="66" height="66" viewBox="0 0 66 66" fill="none" xmlns="http://www.w3.org/2000/svg">
<path d="M33 8.88889C31.2386 6.54038 28.9061 4.68109 26.2241 3.48758C23.542 2.29407 20.5993 1.80596 17.6756 2.06959C14.7518 2.33323 11.9439 3.33987 9.51862 4.99391C7.09331 6.64795 5.13106 8.89449 3.8182 11.5202C2.50534 14.1459 1.88546 17.0636 2.01741 19.9963C2.14936 22.929 3.02877 25.7793 4.57213 28.2765C6.11548 30.7737 8.27156 32.8349 10.8356 34.2645C13.3997 35.694 16.2866 36.4444 19.2222 36.4444" stroke="black" stroke-width="3" stroke-linecap="round" stroke-linejoin="round"/>
<path d="M46.7778 36.4444C49.7134 36.4444 52.6003 35.694 55.1644 34.2645C57.7284 32.8349 59.8845 30.7737 61.4279 28.2765C62.9712 25.7793 63.8506 22.929 63.9826 19.9963C64.1145 17.0636 63.4946 14.1459 62.1818 11.5202C60.8689 8.89449 58.9067 6.64795 56.4814 4.99391C54.0561 3.33987 51.2482 2.33323 48.3244 2.06959C45.4006 1.80596 42.458 2.29407 39.7759 3.48758C37.0939 4.68109 34.7614 6.54038 33 8.88889" stroke="black" stroke-width="3" stroke-linecap="round" stroke-linejoin="round"/>
<path d="M33 64V8.88892" stroke="black" stroke-width="3" stroke-linecap="round" stroke-linejoin="round"/>
</svg>
