<svg width="66" height="52" viewBox="0 0 66 52" fill="none" xmlns="http://www.w3.org/2000/svg">
<path d="M12.5 36.25C18.1609 36.25 22.75 31.6609 22.75 26C22.75 20.3391 18.1609 15.75 12.5 15.75C6.83908 15.75 2.25 20.3391 2.25 26C2.25 31.6609 6.83908 36.25 12.5 36.25Z" stroke="black" stroke-width="3" stroke-linecap="round" stroke-linejoin="round"/>
<path d="M53.5 36.25C59.1609 36.25 63.75 31.6609 63.75 26C63.75 20.3391 59.1609 15.75 53.5 15.75C47.8391 15.75 43.25 20.3391 43.25 26C43.25 31.6609 47.8391 36.25 53.5 36.25Z" stroke="black" stroke-width="3" stroke-linecap="round" stroke-linejoin="round"/>
<path d="M2.24986 26.0001C1.74527 22.1589 2.78772 18.2984 5.27467 14.7985C7.76161 11.2986 11.6074 8.2798 16.4337 6.03902C21.26 3.79824 26.9006 2.41269 32.8006 2.01866C38.7005 1.62462 44.6567 2.23569 50.0832 3.79174" stroke="black" stroke-width="3" stroke-linecap="round" stroke-linejoin="round"/>
<path d="M63.7494 26C64.2539 29.8412 63.2115 33.7016 60.7245 37.2015C58.2376 40.7015 54.3918 43.7203 49.5655 45.9611C44.7392 48.2018 39.0987 49.5874 33.1987 49.9814C27.2987 50.3754 21.3425 49.7644 15.916 48.2083" stroke="black" stroke-width="3" stroke-linecap="round" stroke-linejoin="round"/>
</svg>
