<svg width="57" height="64" viewBox="0 0 57 64" fill="none" xmlns="http://www.w3.org/2000/svg">
<path d="M2 2C4.8113 2 7.50745 3.11678 9.49534 5.10467C11.4832 7.09256 12.6 9.78872 12.6 12.6V44.4001" stroke="black" stroke-width="3" stroke-linecap="round" stroke-linejoin="round"/>
<path d="M12.5996 12.6C12.5996 9.78872 13.7164 7.09256 15.7043 5.10467C17.6922 3.11678 20.3883 2 23.1996 2C26.0109 2 28.7071 3.11678 30.695 5.10467C32.6829 7.09256 33.7996 9.78872 33.7996 12.6V51.4667C33.7996 54.278 32.6829 56.9742 30.695 58.9621C28.7071 60.95 26.0109 62.0668 23.1996 62.0668" stroke="black" stroke-width="3" stroke-linecap="round" stroke-linejoin="round"/>
<path d="M44.3998 58.5335C50.254 58.5335 54.9998 53.7877 54.9998 47.9335C54.9998 42.0793 50.254 37.3335 44.3998 37.3335C38.5456 37.3335 33.7998 42.0793 33.7998 47.9335C33.7998 53.7877 38.5456 58.5335 44.3998 58.5335Z" stroke="black" stroke-width="3" stroke-linecap="round" stroke-linejoin="round"/>
</svg>
