<svg width="64" height="64" viewBox="0 0 64 64" fill="none" xmlns="http://www.w3.org/2000/svg">
<path d="M35.6113 49.0557C35.6113 52.6214 37.0278 56.041 39.5491 58.5623C42.0704 61.0836 45.4901 62.5001 49.0558 62.5001C52.6215 62.5001 56.0411 61.0836 58.5624 58.5623C61.0837 56.041 62.5002 52.6214 62.5002 49.0557" stroke="black" stroke-width="3" stroke-linecap="round" stroke-linejoin="round"/>
<path d="M12.0833 55.7778C17.6522 55.7778 22.1667 51.2633 22.1667 45.6944C22.1667 40.1255 17.6522 35.6111 12.0833 35.6111C6.51446 35.6111 2 40.1255 2 45.6944C2 51.2633 6.51446 55.7778 12.0833 55.7778Z" stroke="black" stroke-width="3" stroke-linecap="round" stroke-linejoin="round"/>
<path d="M28.8888 28.8889C36.3139 28.8889 42.3332 22.8696 42.3332 15.4444C42.3332 8.01928 36.3139 2 28.8888 2C21.4636 2 15.4443 8.01928 15.4443 15.4444C15.4443 22.8696 21.4636 28.8889 28.8888 28.8889Z" stroke="black" stroke-width="3" stroke-linecap="round" stroke-linejoin="round"/>
<path d="M15.4443 15.4443C15.4443 25.5277 22.1666 32.2499 22.1666 45.6943" stroke="black" stroke-width="3" stroke-linecap="round" stroke-linejoin="round"/>
<path d="M42.3335 15.4443C42.3335 28.8888 35.6113 35.611 35.6113 49.0554" stroke="black" stroke-width="3" stroke-linecap="round" stroke-linejoin="round"/>
</svg>
