<svg width="67" height="67" viewBox="0 0 67 67" fill="none" xmlns="http://www.w3.org/2000/svg">
<path d="M2 2C4.12173 2 6.15656 2.76623 7.65685 4.13013C9.15715 5.49403 10 7.34388 10 9.27273V42" stroke="black" stroke-width="2.75" stroke-linecap="round" stroke-linejoin="round"/>
<path d="M10 9.27273C10 7.34388 10.7902 5.49403 12.1967 4.13013C13.6032 2.76623 15.5109 2 17.5 2C19.4891 2 21.3968 2.76623 22.8033 4.13013C24.2098 5.49403 25 7.34388 25 9.27273V42" stroke="black" stroke-width="2.75" stroke-linecap="round" stroke-linejoin="round"/>
<path d="M25 9.41176C25 7.44604 25.7662 5.56083 27.1301 4.17086C28.494 2.78088 30.3439 2 32.2727 2C34.2016 2 36.0514 2.78088 37.4153 4.17086C38.7792 5.56083 39.5455 7.44604 39.5455 9.41176V46.4706C39.5455 51.3849 42.2273 56.0979 47.0009 59.5729C51.7746 63.0478 58.249 65 65 65" stroke="black" stroke-width="2.75" stroke-linecap="round" stroke-linejoin="round"/>
<path d="M36 65C42.6304 65 48.9893 62.9982 53.6777 59.435C58.3661 55.8718 61 51.0391 61 46V38.4C61 35.3765 59.8712 32.4769 57.8619 30.339C55.8525 28.2011 53.1273 27 50.2857 27C47.4441 27 44.7189 28.2011 42.7096 30.339C40.7003 32.4769 39.5714 35.3765 39.5714 38.4" stroke="black" stroke-width="2.75" stroke-linecap="round" stroke-linejoin="round"/>
</svg>
