<svg width="73" height="55" viewBox="0 0 73 55" fill="none" xmlns="http://www.w3.org/2000/svg">
<path d="M27.037 17.6332C27.037 18.9315 25.9845 19.984 24.6862 19.984C23.3875 19.984 22.335 18.9315 22.335 17.6332C22.335 16.3345 23.3875 15.282 24.6862 15.282C25.9845 15.282 27.037 16.3345 27.037 17.6332Z" fill="black"/>
<path d="M50.5478 17.6332C50.5478 18.9315 49.4952 19.984 48.1965 19.984C46.8982 19.984 45.8457 18.9315 45.8457 17.6332C45.8457 16.3345 46.8982 15.282 48.1965 15.282C49.4952 15.282 50.5478 16.3345 50.5478 17.6332Z" fill="black"/>
<path d="M4.81936 51.0194C5.64214 52.9004 7.28814 54.3109 9.40385 54.546C9.75647 54.546 10.1091 54.6636 10.3442 54.6636C12.1073 54.6636 13.8708 53.8408 15.0462 52.5474C16.1041 51.372 16.4567 50.0787 16.4567 48.433L16.4576 25.863L18.2207 35.5026C18.5733 37.7363 20.3368 39.3819 22.4527 39.7346V39.9697V40.2047C22.5702 40.5574 22.5702 40.91 22.6877 41.2626C22.6877 41.3801 22.6877 41.3801 22.8053 41.4977C22.9228 41.7328 22.9228 41.8503 23.0404 41.9678C23.0404 42.0854 23.1579 42.0854 23.1579 42.2029C23.2754 42.3205 23.2754 42.438 23.393 42.6731C23.393 42.7906 23.5105 42.7906 23.5105 42.9082C23.6281 43.0257 23.6281 43.1432 23.7456 43.2608L23.9807 43.4959C24.0982 43.6134 24.0982 43.7309 24.2158 43.8485C24.3333 43.966 24.3333 43.966 24.4509 44.0836C24.5684 44.2011 24.6859 44.3187 24.6859 44.4362C24.8035 44.5537 24.8035 44.5537 24.921 44.6713C25.0386 44.7888 25.1561 44.9064 25.2736 44.9064C25.3912 45.0239 25.3912 45.0239 25.5087 45.1414C25.6263 45.259 25.7438 45.259 25.8613 45.3765C25.9789 45.4941 26.0964 45.4941 26.0964 45.6116C26.214 45.7291 26.3315 45.7291 26.449 45.8467C26.5666 45.8467 26.6841 45.9642 26.6841 45.9642C26.8017 46.0818 26.9192 46.0818 27.0368 46.1993C27.1543 46.1993 27.2718 46.3168 27.3894 46.3168C27.5069 46.3168 27.6245 46.4344 27.8595 46.4344C27.9771 46.4344 28.0946 46.5519 28.2122 46.5519C28.3297 46.5519 28.5648 46.6695 28.6823 46.6695C28.7999 46.6695 28.9174 46.6695 29.0349 46.787C29.1525 46.787 29.3876 46.787 29.5051 46.9046H29.7402H30.563L30.5638 46.9054H43.4955C43.7305 46.9054 43.9656 46.7878 44.0832 46.6703H44.3182C44.4358 46.6703 44.5533 46.5527 44.7884 46.5527C44.9059 46.5527 45.0235 46.4352 45.141 46.4352C45.2586 46.4352 45.3761 46.3177 45.4937 46.3177C45.6112 46.3177 45.7287 46.2001 45.8463 46.2001C45.9638 46.2001 46.0814 46.0826 46.1989 46.0826C46.3164 45.965 46.434 45.965 46.5515 45.8475C46.6691 45.8475 46.7866 45.73 46.7866 45.73C46.9041 45.6124 47.0217 45.6124 47.1392 45.4949C47.2568 45.4949 47.2568 45.3773 47.3743 45.3773C47.4918 45.2598 47.6094 45.1423 47.7269 45.0247L47.8445 44.9072C47.962 44.7896 48.0795 44.6721 48.3146 44.5546L48.9023 43.9668C49.8427 42.7914 50.4304 41.3805 50.5479 39.97C52.6641 39.4998 54.3097 37.8539 54.7799 35.7381L56.5431 26.0984V48.5508C56.5431 50.1964 57.0132 51.4898 57.9536 52.6652C59.129 54.0757 60.8926 54.7813 62.6556 54.7813C63.0082 54.7813 63.3609 54.7813 63.5959 54.6638C65.5945 54.3112 67.3577 53.0182 68.1804 51.1372L68.5331 50.3144C70.7667 45.0246 73 39.7348 73 37.8533V37.6182C73 37.5007 70.5312 25.6278 66.6519 15.6355C65.359 12.2264 61.9499 9.87513 58.1881 9.64003C55.6035 3.05654 45.7292 0 36.4417 0H36.3242C27.0372 0 17.163 2.93899 14.6943 9.40451C10.9326 9.63959 7.64104 11.9908 6.34808 15.3999C2.46878 25.3918 0 37.2651 0 37.3817V37.6168C0 39.4978 2.23368 44.7876 4.46694 50.0778L4.81936 51.0194ZM14.1063 11.8735V48.4331C14.1063 49.4909 13.8712 50.1962 13.166 51.0194C12.2257 52.0773 10.9323 52.5475 9.63935 52.3123C8.34639 52.0773 7.40567 51.372 6.93546 50.1962L6.58284 49.2559C5.28988 46.3169 2.46845 39.4987 2.3509 37.7361C2.58598 36.4431 4.93681 25.5104 8.581 16.3416C9.4042 13.9908 11.6374 12.2272 14.1062 11.8746L14.1063 11.8735ZM36.3244 2.35185C36.442 2.35185 36.442 2.35185 36.3244 2.35185C41.7318 2.35185 46.7864 3.40971 50.4306 5.17329C53.1345 6.46625 56.3084 8.93503 56.3084 12.6968L52.194 35.1492C51.959 36.207 51.2537 37.0302 50.1955 37.3828L49.1376 27.9783V27.8608C47.8447 22.571 40.4387 18.9268 36.6766 17.6334C36.4415 17.5159 35.9713 17.5159 35.7362 17.6334C31.9745 18.9264 24.686 22.5706 23.3928 27.8608V27.9783L22.335 37.3828C21.3947 37.0302 20.5718 36.2074 20.3364 35.0316L16.4567 12.6958C16.5742 5.87808 26.5661 2.35133 36.3227 2.35133L36.3244 2.35185ZM58.7768 11.8735C61.2456 12.2261 63.4789 13.9896 64.302 16.3404C67.9462 25.6274 70.1799 36.4428 70.5325 37.735C70.415 39.4981 67.5936 46.3163 66.3006 49.2548L65.948 50.1951C65.4778 51.3705 64.4199 52.1937 63.2441 52.3112C61.9511 52.5463 60.6578 52.0761 59.7175 51.0183C59.1297 50.313 58.7771 49.6078 58.7771 48.4319L58.7767 12.8136L58.7768 11.8735ZM44.553 44.2006C44.2004 41.1442 41.7316 38.7932 38.558 38.7932H37.6173V36.3245L41.4966 33.9732C42.672 33.268 43.4951 31.8571 43.4951 30.4466V28.5656C43.4951 26.4494 41.732 24.6863 39.6158 24.6863H33.2678C31.1516 24.6863 29.3885 26.4494 29.3885 28.5656V30.4466C29.3885 31.8571 30.0937 33.268 31.387 33.9732L35.2663 36.3245V38.7932C32.0924 38.9108 29.6236 41.3796 29.3885 44.5536C26.6846 44.0834 24.6864 41.7321 24.6864 38.9108L25.8618 28.566C26.9197 24.8042 32.7976 21.5127 36.4414 20.2197C40.0856 21.5127 46.081 24.8042 47.021 28.566L48.1964 39.0279C48.1964 41.2612 46.6684 43.3773 44.5523 44.2002L44.553 44.2006ZM36.4419 41.1442H38.558C40.5566 41.1442 42.2022 42.6722 42.3197 44.6708H31.7401C31.8577 42.6722 33.5033 41.1442 35.5019 41.1442H36.4419ZM36.677 34.0909H36.4419H36.2068L32.5626 31.8572C32.0924 31.5046 31.7398 31.0344 31.7398 30.3291V28.4481C31.7398 27.6253 32.4451 26.92 33.2679 26.92H39.616C40.4387 26.92 41.144 27.6253 41.144 28.4481V30.3291C41.144 30.9168 40.7914 31.5045 40.3212 31.8572L36.677 34.0909Z" fill="black"/>
</svg>
