<svg width="59" height="59" viewBox="0 0 59 59" fill="none" xmlns="http://www.w3.org/2000/svg">
<path d="M57.1843 0C46.7893 0 44.3054 8.22094 43.7834 10.7942C33.2835 11.1733 29.9217 19.7438 29.1626 22.2511H18.3867C17.9732 19.5103 15.6005 17.4027 12.7457 17.4027C9.89119 17.4027 7.51905 19.5103 7.10504 22.2511H5.13824V22.2473C2.30478 22.2473 0 24.552 0 27.3855C0 30.218 2.30478 32.5228 5.13824 32.5228H12.9925L15.7366 40.0657L18.2673 32.5228H25.3136L28.0577 40.0661L30.5808 32.5457C32.6841 32.7625 34.3301 34.5454 34.3301 36.7051C34.3301 39.0114 32.454 40.8875 30.1477 40.8875H25.2096L22.4655 33.3446L19.9348 40.8875H11.5195L8.77541 33.3446L6.24473 40.8875H2.20614V58.305L10.8825 50.692L17.3802 57.1901L22.5189 50.3501L29.3346 57.1658L34.6233 50.7851H49.6279C54.2662 50.7851 58.0408 47.0115 58.0408 42.3728L58.0403 0.000458371L57.1843 0ZM15.6713 34.8804L14.8142 32.523H16.4625L15.6713 34.8804ZM27.9928 34.8799L27.1357 32.523H28.784L27.9928 34.8799ZM22.5308 38.5298L23.3878 40.8871H21.7396L22.5308 38.5298ZM8.84019 38.5298L9.69728 40.8871H8.04904L8.84019 38.5298ZM49.6271 49.0742H33.8169L29.2149 54.627L22.3343 47.7463L17.1956 54.5864L10.9582 48.349L3.91709 54.5277V45.8068L8.22876 45.8063V44.095H3.91709V42.5986H30.148C33.3983 42.5986 36.0416 39.9547 36.0416 36.7049C36.0416 33.4556 33.3978 30.8117 30.148 30.8117H5.13824C3.24833 30.8117 1.71132 29.2742 1.71132 27.3858C1.71132 25.5097 3.22731 23.9852 5.09815 23.9632H8.75145V23.1075C8.75145 20.9053 10.543 19.1147 12.7442 19.1147C14.9464 19.1147 16.7379 20.9062 16.7379 23.1075V23.9632L30.5092 23.9617L30.6515 23.2818C30.746 22.8406 33.0528 12.4924 44.5083 12.4924L45.2818 12.491L45.3596 11.7217C45.4002 11.324 46.4364 2.22927 56.3271 1.73213V2.6809H53.6341V4.39222H56.3271V5.41882L52.0378 5.41929V7.13062H56.3276V8.15721H50.4407V9.86853H56.3276V10.8951H48.3531V12.6065H56.3271V13.633L49.6422 13.6335V15.3448H56.328V16.3714H51.4676V18.0828H56.328V19.1094H52.7683V20.8207H56.328V42.3735C56.328 46.0684 53.3212 49.0741 49.6265 49.0741L49.6271 49.0742Z" fill="black"/>
<path d="M51.8666 40.8172C51.8666 42.625 50.3965 44.0956 48.5877 44.0956L36.5469 44.0952V45.8065H48.5877C51.3395 45.8065 53.5779 43.5681 53.5779 40.8168V30.8066H51.8666V40.8172Z" fill="black"/>
<path d="M12.7446 25.7882C14.2239 25.7882 15.4266 24.5849 15.4266 23.1062C15.4266 21.6274 14.2234 20.425 12.7446 20.425C11.2659 20.425 10.0635 21.6278 10.0635 23.1062C10.0625 24.5855 11.2653 25.7882 12.7446 25.7882ZM12.7446 22.1359C13.2799 22.1359 13.7154 22.5714 13.7154 23.1057C13.7154 23.6409 13.2799 24.0764 12.7446 24.0764C12.2094 24.0764 11.7748 23.6409 11.7748 23.1057C11.7739 22.5709 12.2094 22.1359 12.7446 22.1359Z" fill="black"/>
<path d="M9.59668 44.0957H34.6113V45.807H9.59668V44.0957Z" fill="black"/>
<path d="M43.4818 32.9145C48.357 32.9145 52.3239 28.9476 52.3239 24.0724C52.3239 19.1972 48.357 15.2302 43.4818 15.2302C38.6066 15.2302 34.6396 19.1962 34.6396 24.0724C34.6396 28.9485 38.6066 32.9145 43.4818 32.9145ZM43.4818 16.9418C47.4139 16.9418 50.6126 20.1405 50.6126 24.0726C50.6126 28.0047 47.4139 31.2034 43.4818 31.2034C39.5497 31.2034 36.351 28.0047 36.351 24.0726C36.351 20.141 39.5502 16.9418 43.4818 16.9418Z" fill="black"/>
<path d="M43.4813 29.8001C46.639 29.8001 49.2088 27.2303 49.2088 24.0721C49.2088 20.9145 46.639 18.3447 43.4813 18.3447C40.3237 18.3447 37.7539 20.9137 37.7539 24.0721C37.7539 27.2303 40.3237 29.8001 43.4813 29.8001ZM43.4813 20.0564C45.6959 20.0564 47.4974 21.8579 47.4974 24.0725C47.4974 26.2871 45.6959 28.0886 43.4813 28.0886C41.2668 28.0886 39.4652 26.2871 39.4652 24.0725C39.4652 21.8584 41.2672 20.0564 43.4813 20.0564Z" fill="black"/>
<path d="M43.4816 26.8335C45.0038 26.8335 46.2424 25.5943 46.2424 24.0721C46.2424 22.5499 45.0033 21.3113 43.4816 21.3113C41.9598 21.3113 40.7207 22.5494 40.7207 24.0721C40.7207 25.5943 41.9593 26.8335 43.4816 26.8335ZM43.4816 23.0226C44.0607 23.0226 44.5311 23.4934 44.5311 24.0721C44.5311 24.6513 44.0603 25.1221 43.4816 25.1221C42.9033 25.1221 42.432 24.6513 42.432 24.0721C42.432 23.4934 42.9024 23.0226 43.4816 23.0226Z" fill="black"/>
<path d="M5.64453 26.5291H31.9035V28.2404H5.64453V26.5291Z" fill="black"/>
</svg>
