<svg width="64" height="64" viewBox="0 0 64 64" fill="none" xmlns="http://www.w3.org/2000/svg">
<path d="M43.079 33.2307C45.118 33.2307 46.7698 31.577 46.7698 29.5407C46.7698 27.5008 45.117 25.8472 43.079 25.8472H38.1555C36.1156 25.8472 34.4629 27.5008 34.4629 29.5407V46.7713C34.4638 48.8103 36.1165 50.4613 38.1555 50.4613C40.1945 50.4613 41.8482 48.8076 41.8482 46.7686V46.766C41.8482 46.0866 41.2967 45.536 40.6173 45.536C39.9379 45.536 39.3873 46.0858 39.3873 46.766V46.7686C39.3873 47.448 38.8358 47.9986 38.1564 47.9986C37.4771 47.9986 36.9256 47.4489 36.9256 46.7686L36.9264 29.5407C36.9264 28.8596 37.4762 28.3098 38.1573 28.3098H39.5978C39.4621 28.6943 39.3882 29.1092 39.3882 29.5407C39.3864 31.5788 41.0392 33.2307 43.079 33.2307H43.079ZM43.079 28.3097C43.7575 28.3097 44.309 28.8594 44.309 29.5405C44.309 30.2191 43.7575 30.7705 43.079 30.7705C42.3979 30.7705 41.8481 30.219 41.8481 29.5405C41.8472 28.8603 42.3979 28.3097 43.079 28.3097Z" fill="black"/>
<path d="M25.846 50.4622C27.8858 50.4622 29.5386 48.8086 29.5386 46.7696V29.5417C29.5386 27.5018 27.8858 25.8481 25.846 25.8481H20.9241C18.8842 25.8481 17.2314 27.5018 17.2314 29.5417C17.2314 31.5798 18.8842 33.2316 20.9241 33.2316C22.9631 33.2316 24.6167 31.578 24.6167 29.5417C24.6167 29.1093 24.5419 28.6935 24.4062 28.3108H25.8467C26.5261 28.3108 27.0776 28.8606 27.0776 29.5417V46.7723C27.0767 47.4491 26.5261 47.9997 25.8467 47.9997C25.1674 47.9997 24.6167 47.4499 24.6167 46.7697V46.7671C24.6167 46.0877 24.0652 45.5371 23.3859 45.5371C22.7065 45.5371 22.1559 46.0868 22.1559 46.7671V46.7697C22.155 48.8087 23.8086 50.4623 25.8458 50.4623L25.846 50.4622ZM20.9241 30.7716C20.2447 30.7716 19.6932 30.2201 19.6932 29.5416C19.6932 28.8605 20.2447 28.3107 20.9241 28.3107C21.6034 28.3107 22.155 28.8605 22.155 29.5416C22.155 30.2201 21.6034 30.7716 20.9241 30.7716Z" fill="black"/>
<path d="M39.3578 23.3854C40.0372 23.3854 40.5887 22.8356 40.5887 22.1545C40.5887 21.476 40.0372 20.9263 39.3578 20.9263H39.3552H24.6176C23.9382 20.9263 23.3867 21.476 23.3867 22.1545C23.3867 22.8357 23.9382 23.3854 24.6176 23.3854H39.3578Z" fill="black"/>
<path d="M60.309 12.3066H48.0018C45.2817 12.3066 43.08 14.5118 43.08 17.2285V17.2294H43.0791V19.6921H43.08C43.08 22.4096 45.2834 24.614 48.0018 24.614C48.6812 24.614 49.2318 25.1638 49.2318 25.844V33.2275C49.2318 33.9069 48.6821 34.4575 48.0018 34.4575C45.962 34.4575 44.3092 36.1111 44.3092 38.1528V47.9999C44.3092 48.6767 43.7577 49.2299 43.0792 49.2299C42.3981 49.2299 41.8483 49.7797 41.8483 50.4599H41.8475V54.1526H41.8483C41.8483 55.5122 40.7462 56.6153 39.3865 56.6153H35.693C34.3333 56.6153 33.2329 55.514 33.2311 54.1552V54.1526C33.2311 53.4732 32.6814 52.9209 32.0003 52.9209C31.3209 52.9209 30.7694 53.4733 30.7694 54.1526V54.1552C30.7694 55.5123 29.6673 56.6153 28.3093 56.6153H24.6167C23.2571 56.6153 22.1549 55.5114 22.1549 54.1526V50.4599C22.1549 49.7805 21.6034 49.2299 20.924 49.2299C20.2446 49.2299 19.6931 48.6775 19.6931 47.9999V38.1528C19.6931 36.1112 18.0403 34.4575 16.0005 34.4575C15.3211 34.4575 14.7705 33.9077 14.7705 33.2275V25.844C14.7705 25.1646 15.3203 24.614 16.0005 24.614H16.0014C18.7215 24.614 20.9232 22.408 20.9232 19.6921V17.2287C20.9232 14.5104 18.7181 12.3068 15.9998 12.3068H3.69264C1.65365 12.3068 0 13.9605 0 16.0004C0 18.0385 1.65365 19.693 3.69264 19.693H14.7131V19.6904C14.7331 19.6904 14.7505 19.693 14.7705 19.693C15.4499 19.693 16.0005 19.1415 16.0005 18.4621C16.0005 17.781 15.4507 17.2313 14.7705 17.2313C14.7505 17.2313 14.7331 17.2321 14.7131 17.2339V17.2313H3.69264C3.01326 17.2313 2.46176 16.6797 2.46176 16.0013C2.46176 15.3201 3.01328 14.7704 3.69264 14.7704H15.9998C17.3603 14.7704 18.4616 15.8717 18.4616 17.2322V19.6949C18.4616 21.0546 17.3604 22.155 15.9998 22.155C13.9608 22.155 12.3072 23.8078 12.3072 25.8476V33.2311C12.3072 35.2727 13.9608 36.9238 15.9998 36.9238C16.6809 36.9238 17.2307 37.4735 17.2307 38.1555V48.0026C17.2307 49.6075 18.258 50.9766 19.6925 51.483V54.1553C19.6925 56.8737 21.8933 59.0754 24.6099 59.0772C24.6125 61.7956 26.8159 63.9946 29.5309 63.9946H34.4544C37.1727 63.9946 39.3745 61.7947 39.3762 59.0772H39.3849C42.1033 59.0772 44.3068 56.8746 44.3068 54.1553V51.483C45.7413 50.9768 46.7687 49.6076 46.7687 48.0026V38.1555C46.7687 37.4735 47.3184 36.9238 47.9995 36.9238C50.0394 36.9238 51.6904 35.2727 51.6904 33.2311V25.8476C51.6904 23.8078 50.0393 22.155 47.9995 22.155C46.639 22.155 45.5368 21.0537 45.5368 19.6949V17.2322C45.5368 15.8717 46.6389 14.7704 47.9995 14.7704L60.3091 14.7713C60.9877 14.7713 61.54 15.321 61.54 16.0021C61.54 16.6806 60.9902 17.2321 60.3091 17.2321H48.6171C47.9359 17.2321 47.3862 17.7819 47.3862 18.463C47.3862 19.1424 47.936 19.6939 48.6171 19.6939H60.3091C62.349 19.6939 64 18.0394 64 16.0012C64 13.9622 62.349 12.3068 60.3091 12.3068L60.309 12.3066ZM34.457 61.5322H29.5335C28.1765 61.5322 27.077 60.4335 27.0735 59.0766H28.3104H28.3139H28.3252C29.7892 59.0713 31.1037 58.4285 32.0014 57.4081C32.9043 58.4311 34.2222 59.0766 35.694 59.0766H36.9188C36.9145 60.4336 35.8141 61.5322 34.457 61.5322H34.457Z" fill="black"/>
<path d="M8.61842 7.38526H16.0019C20.0807 7.38526 23.3872 10.6909 23.3872 14.7705H23.3881C23.3881 16.8095 25.0417 18.4632 27.0807 18.4632C29.1197 18.4632 30.7716 16.8104 30.7716 14.7705H30.7707V14.7671V14.7514C30.762 6.60319 24.1526 0 16.0019 0H8.61842C6.57854 0 4.92578 1.65365 4.92578 3.69264C4.92578 5.73163 6.57769 7.38528 8.61842 7.38528V7.38526ZM8.61842 2.46338H16.0019C22.8 2.46338 28.3091 7.97316 28.3091 14.7705V14.7801H28.3099C28.3047 15.456 27.7558 16.0006 27.0799 16.0006C26.4006 16.0006 25.8491 15.4482 25.8491 14.7697H25.8482C25.8482 9.33294 21.4414 4.92257 16.0011 4.92257H8.6176C7.93648 4.92257 7.38672 4.37106 7.38672 3.6917C7.38759 3.01319 7.93737 2.46344 8.61846 2.46344L8.61842 2.46338Z" fill="black"/>
<path d="M36.9222 18.4642C38.9621 18.4642 40.6149 16.8105 40.6149 14.7715H40.6157C40.6157 10.6927 43.9213 7.38625 48.001 7.38625H55.3863C57.4262 7.38625 59.0772 5.7326 59.0772 3.69361C59.0772 1.65462 57.4261 0.000976562 55.3863 0.000976562H48.001C39.8501 0.000976562 33.2409 6.60417 33.2305 14.7524V14.7672V14.7706C33.2313 16.8114 34.885 18.4642 36.9222 18.4642L36.9222 18.4642ZM35.6931 14.7811V14.7715C35.6931 7.97349 41.2038 2.46437 48.0018 2.46437H55.3871C56.0665 2.46437 56.618 3.01415 56.618 3.69438C56.618 4.37376 56.0664 4.92525 55.3871 4.92525H48.0018C42.5633 4.92525 38.1547 9.33383 38.1547 14.7724H38.1538C38.1538 15.4509 37.6041 16.0032 36.923 16.0032C36.248 16.0024 35.699 15.4569 35.693 14.781L35.6931 14.7811Z" fill="black"/>
</svg>
