<svg width="47" height="62" viewBox="0 0 47 62" fill="none" xmlns="http://www.w3.org/2000/svg">
<path d="M31.3797 62H15.4906L11.2235 53.7559V39.2813L3.83578 31.8695V16.363L6.98543 10.4213H0V0.0654926L9.77706 4.92593V8.3397L37.2225 8.27953L37.222 4.86044L47 0V10.3575H40.0119L43.1844 16.3647V31.8768L35.6239 39.2878V53.7534L31.3797 62ZM16.7783 59.9202H30.0886L32.8551 54.5448L13.9964 54.5452L16.7783 59.9202ZM13.3288 52.465H33.5188V43.2387L31.8057 46.6047L29.9266 45.669L32.8637 39.8953H27.5789L23.5087 43.9797L19.4622 39.8953H14.0154L17.0667 45.6539L15.2027 46.6188L13.3285 43.083L13.3294 52.465L13.3288 52.465ZM13.3288 37.8171H20.3478L23.5145 41.0123L26.6987 37.8171H33.5194L33.5189 15.5796H40.3978L37.6397 10.359L9.36257 10.4223L6.63223 15.5738L13.3294 15.5543L13.3288 37.8171ZM35.6245 24.9859V36.3605L41.0826 31.0095V24.9859H35.6245ZM5.94162 31.0165L11.2241 36.3163V24.9823L5.94162 24.9677V31.0165ZM35.6245 22.9052H41.0826V17.6594H35.6245V22.9052ZM5.94162 22.887L11.2241 22.9021V17.6408L5.94162 17.6567V22.887ZM2.10503 8.34217H7.67317V6.2079L2.10503 3.44051V8.34217ZM39.3287 8.2767H44.8968V3.37514L39.3287 6.14299V8.2767Z" fill="black"/>
</svg>
