<svg width="65" height="48" viewBox="0 0 65 48" fill="none" xmlns="http://www.w3.org/2000/svg">
<path d="M35.8416 35.5786H28.9572C28.3238 35.5786 27.8096 36.0937 27.8096 36.7255C27.8096 37.3614 28.3238 37.874 28.9572 37.874H35.8416C36.4767 37.874 36.9893 37.3613 36.9893 36.7255C36.9893 36.0952 36.4759 35.5786 35.8416 35.5786Z" fill="black"/>
<path d="M31.5875 28.4173C31.9516 28.7823 32.4999 28.8513 32.9339 28.6217C33.0328 28.569 33.1269 28.5009 33.2104 28.4173H33.2113L34.8334 26.7944C35.282 26.3467 35.282 25.6199 34.8334 25.1722C34.3849 24.7245 33.659 24.7245 33.2104 25.1722L32.4002 25.9825L31.5875 25.1722C31.1398 24.7245 30.413 24.7245 29.9653 25.1722C29.5168 25.6199 29.5168 26.3466 29.9653 26.7944L31.5875 28.4173Z" fill="black"/>
<path d="M8.03286 13.7767C8.32566 13.7767 8.62007 13.6647 8.84312 13.4417C9.29165 12.9915 9.29165 12.2648 8.84312 11.8187C8.62007 11.5957 8.32564 11.4813 8.03121 11.4829C6.13005 11.4829 4.58984 13.0248 4.58984 14.926C4.58984 16.828 6.1309 18.3673 8.03121 18.369C8.32564 18.369 8.61924 18.2571 8.84312 18.0316C9.29165 17.5839 9.29165 16.8571 8.84312 16.4094C8.62007 16.1839 8.32564 16.072 8.03286 16.072C7.39778 16.072 6.88519 15.5594 6.88519 14.9252C6.88519 14.2917 7.3978 13.7767 8.03286 13.7767Z" fill="black"/>
<path d="M56.9704 11.4824C56.6752 11.4816 56.3824 11.5952 56.1561 11.8182C55.7084 12.2659 55.7084 12.9927 56.1561 13.4412C56.3816 13.6642 56.6744 13.7762 56.9688 13.7762C57.6014 13.7762 58.1157 14.2904 58.1157 14.9238C58.1157 15.5573 57.6014 16.0707 56.9688 16.0707C56.6744 16.0707 56.3816 16.1826 56.1561 16.4081C55.7084 16.8558 55.7084 17.5825 56.1561 18.0303C56.3816 18.2549 56.6744 18.3677 56.9704 18.3677C58.8716 18.3669 60.4118 16.8266 60.4118 14.9246C60.4118 13.0243 58.8715 11.4824 56.9704 11.4824V11.4824Z" fill="black"/>
<path d="M56.9685 6.88527L41.683 6.88446C41.0503 6.88446 40.5353 6.37185 40.5353 5.73679C40.5353 3.83644 38.9958 2.29542 37.0939 2.29542C35.192 2.29542 33.6509 3.83729 33.6509 5.73679C33.6509 6.37187 33.1383 6.88446 32.5032 6.88446C31.8698 6.88446 31.3564 6.37185 31.3564 5.73679V3.44303C31.3564 1.54104 29.8145 0 27.915 0C26.013 0 24.4711 1.54106 24.4711 3.44303H24.4703V5.73679C24.4703 6.37187 23.9585 6.88446 23.3251 6.88446H8.03367V6.88527C3.59627 6.88527 0 10.4815 0 14.9175C0 19.3534 3.59627 22.9497 8.03367 22.9497C9.30139 22.9497 10.3291 23.979 10.3291 25.2451V32.1362C10.3291 34.6733 12.3852 36.7254 14.9183 36.7254H19.5008C20.5861 42.866 25.9473 47.5306 32.3994 47.5306C38.8507 47.5306 44.2112 42.8652 45.298 36.7254H50.0882C52.6245 36.7254 54.6788 34.6717 54.6788 32.1362V25.2451H54.6715C54.6715 23.979 55.6992 22.9497 56.9678 22.9497C61.4035 22.9497 65 19.3534 65 14.9175C65.0016 10.4826 61.4046 6.88527 56.9686 6.88527H56.9685ZM32.3989 45.2358C26.4327 45.2358 21.5945 40.3984 21.5945 34.4322C21.5945 33.1645 22.6222 32.1385 23.8908 32.1385C25.7928 32.1385 27.3338 30.5942 27.3338 28.6929V19.5131C27.3338 17.6119 25.7927 16.0701 23.8908 16.0701C21.9888 16.0701 20.4477 17.6119 20.4477 19.5131C20.4477 21.4143 21.9888 22.957 23.8908 22.957C24.2939 22.957 24.6792 22.8864 25.0376 22.7591V28.6929C25.0368 29.3288 24.525 29.8414 23.8908 29.8414C23.8908 27.9402 22.3489 26.3984 20.4477 26.3984C19.1792 26.3984 18.1523 25.3691 18.1523 24.1021L18.1531 17.2194C18.1531 15.9516 19.18 14.9239 20.4469 14.9239H27.3338C28.6015 14.9239 29.6292 15.9508 29.6292 17.2194C29.6292 18.453 30.2789 19.5358 31.2538 20.1441C31.2676 20.4183 31.3771 20.6908 31.5864 20.9001C32.0365 21.3486 32.7632 21.3486 33.2093 20.9001C33.421 20.69 33.5305 20.4183 33.5419 20.1441C34.52 19.5374 35.1689 18.4538 35.1689 17.2194C35.1689 15.9508 36.1957 14.9239 37.4643 14.9239H44.3504C45.6181 14.9239 46.6458 15.9516 46.6458 17.2194V24.1038C46.6458 25.3715 45.6182 26.4 44.3504 26.4C42.4484 26.4 40.9074 27.9419 40.9074 29.8431C40.2739 29.8431 39.7597 29.3304 39.7597 28.6946V22.7607C40.119 22.8873 40.5059 22.9586 40.9074 22.9586C42.8085 22.9586 44.3504 21.416 44.3504 19.5148C44.3504 17.6136 42.8085 16.0717 40.9074 16.0717C39.0054 16.0717 37.4643 17.6136 37.4643 19.5148V28.6946C37.4643 30.5958 39.0054 32.1401 40.9074 32.1401C42.1751 32.1401 43.2028 33.167 43.2028 34.4339C43.2028 40.3993 38.3671 45.2358 32.3992 45.2358H32.3989ZM25.0376 19.5137C25.0376 20.1472 24.5249 20.6614 23.8907 20.6614C23.2556 20.6614 22.743 20.1472 22.743 19.5137C22.743 18.8803 23.2556 18.3669 23.8907 18.3669C24.525 18.3677 25.0376 18.8803 25.0376 19.5137ZM39.7594 19.5137C39.7594 18.8803 40.2736 18.3669 40.9071 18.3669C41.5405 18.3669 42.0548 18.8795 42.0548 19.5137C42.0548 20.1472 41.5405 20.6614 40.9071 20.6614C40.2736 20.6614 39.7594 20.148 39.7594 19.5137ZM56.9681 20.6574C54.431 20.6574 52.3775 22.7134 52.3775 25.248L52.384 25.2472V32.1382C52.384 33.4076 51.3563 34.4345 50.0886 34.4345H45.4994C45.4994 32.7361 44.5739 31.2535 43.2031 30.4601V29.8453C43.2031 29.2119 43.7157 28.6968 44.3508 28.6968C46.8871 28.6968 48.94 26.6432 48.94 24.1062L48.9392 17.2201C48.9392 14.6839 46.8847 12.6295 44.35 12.6295H37.4647C34.9285 12.6295 32.8756 14.6856 32.8756 17.2187V17.2195C32.8756 17.6023 32.6874 17.9389 32.4003 18.1482C32.1115 17.9389 31.9258 17.6015 31.9258 17.2195V17.2187C31.9258 14.6841 29.8689 12.6295 27.3351 12.6295H20.4491H20.4483C17.9136 12.6295 15.8599 14.6856 15.8599 17.2201V24.1045C15.8599 26.6417 17.9144 28.6952 20.4491 28.6952C21.0825 28.6952 21.5959 29.2102 21.5959 29.8437V30.4585C20.2236 31.2517 19.3022 32.7344 19.3022 34.4328H14.9183C13.6506 34.4328 12.6229 33.406 12.6229 32.1366V25.2455C12.6229 22.7109 10.5668 20.6549 8.03374 20.6549C4.86396 20.6549 2.29446 18.0854 2.29446 14.9164C2.29446 11.7466 4.86396 9.17964 8.03374 9.17964V9.17883H23.3227C25.223 9.17883 26.764 7.63696 26.764 5.73496V3.4412H26.7648C26.7648 2.80613 27.2774 2.29353 27.9125 2.29353C28.5452 2.29353 29.0594 2.80615 29.0577 3.4412H29.0586V5.73496C29.0586 7.63696 30.598 9.17883 32.4999 9.17883C34.4011 9.17883 35.9438 7.63696 35.9438 5.73496C35.9438 5.10232 36.4564 4.58973 37.0906 4.58973C37.7257 4.58973 38.2383 5.10234 38.2383 5.73496C38.2383 7.63696 39.7794 9.17883 41.6797 9.17883H56.9653V9.17964C60.1351 9.17964 62.7021 11.7466 62.7021 14.9164C62.7053 18.087 60.1373 20.6572 56.9678 20.6572L56.9681 20.6574Z" fill="black"/>
</svg>
