<svg width="61" height="63" viewBox="0 0 61 63" fill="none" xmlns="http://www.w3.org/2000/svg">
<path d="M46.1083 30.2404C46.1083 29.7446 45.707 29.342 45.2105 29.342H15.1797C14.6838 29.342 14.2812 29.7446 14.2812 30.2404C14.2812 30.7363 14.6825 31.1389 15.1797 31.1389H45.2105C45.7064 31.1389 46.1083 30.7363 46.1083 30.2404Z" fill="black"/>
<path d="M36.9837 46.2395H23.4052C22.9094 46.2395 22.5068 46.6408 22.5068 47.1379C22.5068 47.6331 22.9094 48.0357 23.4052 48.0357H36.9837C37.4808 48.0357 37.8821 47.6331 37.8821 47.1379C37.8821 46.6408 37.4808 46.2395 36.9837 46.2395Z" fill="black"/>
<path d="M23.4052 53.4267C22.9094 53.4267 22.5068 53.8293 22.5068 54.3251C22.5068 54.821 22.9094 55.2229 23.4052 55.2229C24.8935 55.2229 26.0992 54.0166 26.0992 52.5277C26.0992 51.0394 24.8928 49.8337 23.4052 49.8337C22.9094 49.8337 22.5068 50.235 22.5068 50.7315C22.5068 51.2274 22.9094 51.6293 23.4052 51.6293C23.9011 51.6293 24.3036 52.0318 24.3036 52.5277C24.3036 53.0242 23.9011 53.4267 23.4052 53.4267Z" fill="black"/>
<path d="M36.9843 51.6406V51.6215C37.4814 51.6215 37.8827 51.219 37.8827 50.7231C37.8827 50.226 37.4814 49.8247 36.9843 49.8247C36.9049 49.8247 36.8275 49.8368 36.7538 49.8558C35.3741 49.9733 34.2891 51.1295 34.2891 52.5403C34.2891 54.0292 35.4961 55.2356 36.9843 55.2356C37.4814 55.2356 37.8827 54.8343 37.8827 54.3372C37.8827 53.8413 37.4814 53.4394 36.9843 53.4394C36.4891 53.4394 36.0859 53.0368 36.0859 52.541C36.0859 52.0445 36.4891 51.6407 36.9843 51.6407V51.6406Z" fill="black"/>
<path d="M56.7954 29.3433H51.4976C49.5122 29.3433 47.9052 30.9515 47.9052 32.9369V49.8345C47.9052 50.8256 47.1007 51.6301 46.1076 51.6301H41.4752V39.0365C41.9032 39.2479 42.3825 39.366 42.8937 39.366C44.6689 39.366 46.1076 37.9266 46.1076 36.1515C46.1076 34.3763 44.6682 32.9376 42.8937 32.9376C41.1184 32.9376 39.6791 34.3769 39.6791 36.1515V55.2629C39.6791 56.2553 38.8747 57.0598 37.8822 57.0598L22.5056 57.0591C21.5133 57.0591 20.7088 56.2547 20.7088 55.2623V36.1524C20.7088 34.3772 19.2694 32.9385 17.4942 32.9385C15.719 32.9385 14.2803 34.3779 14.2803 36.1524C14.2803 37.9284 15.7197 39.367 17.4942 39.367C18.0041 39.367 18.4847 39.2489 18.9126 39.0375V51.6311H14.2802C13.2872 51.6311 12.4834 50.8266 12.4834 49.8355L12.4827 32.9281C12.477 30.9484 10.8707 29.3446 8.89028 29.3446H3.59246C1.60833 29.3446 0 30.9528 0 32.9382C0 34.9235 1.60825 36.5306 3.59246 36.5306H7.98997C7.98997 36.5306 7.99061 36.5313 7.99188 36.5313C8.48775 36.5313 8.89028 36.1287 8.89028 35.6329C8.89028 35.137 8.48774 34.7351 7.99188 34.7351V34.7344H3.59257C2.60019 34.7344 1.79569 33.93 1.79569 32.9376C1.79569 31.9451 2.60014 31.1407 3.59257 31.1407H8.8904C9.88278 31.1407 10.6873 31.9451 10.6873 32.9376V49.8352C10.6873 51.8206 12.2968 53.4277 14.2809 53.4277H18.9133V55.2626C18.9133 57.2461 20.5215 58.855 22.5068 58.855H23.0084C23.0084 60.8392 24.6167 62.4486 26.6009 62.4486H28.3978L30.1933 62.4499H33.7876C35.773 62.4499 37.38 60.8397 37.38 58.8563H37.8816C39.8657 58.8563 41.4752 57.2462 41.4752 55.2638V53.4289H46.1076C48.093 53.4289 49.7012 51.8207 49.7012 49.8365V32.9388C49.7012 31.9465 50.505 31.142 51.4981 31.142H56.7959C57.7883 31.142 58.5915 31.9464 58.5915 32.9388C58.5915 33.9319 57.7877 34.7364 56.7959 34.7364H52.3959C51.9007 34.7364 51.4982 35.1376 51.4982 35.6341C51.4982 36.13 51.9007 36.5325 52.3959 36.5325H56.7959C58.78 36.5325 60.3877 34.923 60.3877 32.939C60.3871 30.9542 58.7788 29.3454 56.7952 29.3454L56.7954 29.3433ZM42.8932 34.7337C43.6742 34.7337 44.3117 35.3693 44.3117 36.1509C44.3117 36.9337 43.6755 37.5699 42.8932 37.5699C42.1117 37.5699 41.4748 36.9344 41.4748 36.1509C41.4755 35.3699 42.111 34.7337 42.8932 34.7337ZM17.4931 37.5699C16.7122 37.5699 16.0747 36.9343 16.0747 36.1508C16.0747 35.3699 16.7109 34.7337 17.4931 34.7337C18.2747 34.7337 18.9116 35.3692 18.9116 36.1508C18.9116 36.9337 18.2754 37.5699 17.4931 37.5699ZM35.5838 58.8545C35.5838 59.8469 34.7781 60.6514 33.7863 60.6514H26.5989C25.6066 60.6514 24.8034 59.8469 24.8034 58.8545H35.5838Z" fill="black"/>
<path d="M41.4935 22.8645C47.7347 16.6238 47.7347 6.50324 41.4935 0.263339C41.143 -0.0877796 40.5741 -0.0877796 40.2236 0.263339C39.8725 0.613807 39.8725 1.1827 40.2236 1.53382C45.7544 7.06521 45.7544 16.0641 40.2236 21.5961C34.6922 27.1269 25.6934 27.1269 20.1613 21.5961C14.6299 16.0647 14.6299 7.06586 20.1613 1.53382C20.5118 1.18335 20.5118 0.614458 20.1613 0.263974C19.8102 -0.0871447 19.242 -0.0871447 18.8909 0.263974C12.6497 6.50469 12.6497 16.6252 18.8909 22.8651C25.1334 29.1063 35.2521 29.1059 41.492 22.8645L41.4935 22.8645Z" fill="black"/>
</svg>
