<svg width="68" height="50" viewBox="0 0 68 50" fill="none" xmlns="http://www.w3.org/2000/svg">
<path d="M13.6029 12.4661C9.15471 12.4661 5.66992 14.9593 5.66992 18.1324C5.66992 21.3056 9.15471 23.7988 13.6029 23.7988C18.051 23.7988 21.5358 21.3056 21.5358 18.1324C21.5358 14.9593 18.051 12.4661 13.6029 12.4661ZM13.6029 21.5323C10.5319 21.5323 7.93647 19.9751 7.93647 18.1324C7.93647 16.2898 10.5319 14.7326 13.6029 14.7326C16.6738 14.7326 19.2692 16.2898 19.2692 18.1324C19.2692 19.9751 16.6738 21.5323 13.6029 21.5323Z" fill="black"/>
<path d="M10.2031 16.9993H12.4697V19.2658H10.2031V16.9993Z" fill="black"/>
<path d="M14.7363 16.9993H17.0029V19.2658H14.7363V16.9993Z" fill="black"/>
<path d="M10.2031 7.93311H12.4697V10.1997H10.2031V7.93311Z" fill="black"/>
<path d="M14.7363 7.93311H17.0029V10.1997H14.7363V7.93311Z" fill="black"/>
<path d="M62.3337 9.0663H61.2004C59.1584 9.06883 57.1965 9.85908 55.7222 11.2716C54.2479 12.6846 53.3752 14.6112 53.2857 16.6511C52.2202 16.1355 51.0515 15.8669 49.8676 15.8659H26.0688C26.0683 13.1222 25.1567 10.456 23.4769 8.28654C24.3714 8.20964 25.2138 7.83323 25.8669 7.21802C27.9771 5.16245 27.0002 1.27292 26.8768 0.835283C26.7422 0.342004 26.2944 0 25.7835 0C22.8719 0 20.8501 0.793294 19.7771 2.35359C19.3187 3.03456 19.0511 3.82581 19.0015 4.64539C15.5946 2.98239 11.611 2.98239 8.20404 4.64539C8.15446 3.82428 7.88632 3.03096 7.42744 2.34802C6.34982 0.793294 4.3281 0 1.42212 0C0.91063 0 0.46289 0.342508 0.328813 0.836293C0.215486 1.27392 -0.771578 5.16554 1.33966 7.22007C1.99281 7.83477 2.83416 8.21067 3.72769 8.28757C1.82289 10.7569 0.915228 13.8518 1.18333 16.9586C1.45197 20.066 2.87715 22.9589 5.17712 25.0651C7.47709 27.1713 10.4843 28.337 13.6029 28.3319C13.9858 28.3319 14.3623 28.3081 14.7361 28.2742V30.5984C14.7397 32.5043 15.4288 34.3448 16.6768 35.7847C17.9254 37.2245 19.6496 38.1672 21.5358 38.4408V48.7308C21.5358 49.0314 21.6552 49.3197 21.8677 49.5322C22.0802 49.7447 22.3685 49.8641 22.6691 49.8641H31.7353C32.0358 49.8641 32.3242 49.7447 32.5367 49.5322C32.7491 49.3197 32.8685 49.0314 32.8685 48.7308V38.5314H38.5349V48.7308C38.5349 49.0314 38.6543 49.3197 38.8668 49.5322C39.0793 49.7447 39.3677 49.8641 39.6682 49.8641H48.7344C49.0349 49.8641 49.3233 49.7447 49.5358 49.5322C49.7483 49.3197 49.8677 49.0314 49.8677 48.7308V38.5314C51.9708 38.5288 53.9875 37.6925 55.4744 36.2051C56.9617 34.7182 57.798 32.7015 57.8006 30.5984V23.7988C57.8011 21.726 56.9871 19.7362 55.5341 18.2584V16.9992C55.5361 15.497 56.1336 14.0567 57.1955 12.9942C58.258 11.9323 59.6983 11.3349 61.2004 11.3328H62.3337C63.5485 11.3328 64.6706 11.9809 65.2782 13.0327C65.8853 14.0845 65.8853 15.3807 65.2782 16.4325C64.6705 17.4843 63.5485 18.1324 62.3337 18.1324H61.2004C60.5746 18.1324 60.0672 17.625 60.0672 16.9992C60.0672 16.3733 60.5746 15.8659 61.2004 15.8659H63.467V13.5993H61.2004C59.9857 13.5993 58.8636 14.2474 58.256 15.2992C57.6489 16.3511 57.6489 17.6473 58.256 18.6991C58.8636 19.7509 59.9857 20.399 61.2004 20.399H62.3337C64.3579 20.399 66.2288 19.3188 67.2407 17.5658C68.2531 15.8128 68.2531 13.6524 67.2407 11.8994C66.2289 10.1464 64.3579 9.06623 62.3337 9.06623L62.3337 9.0663ZM21.6497 3.62657C22.485 2.74981 23.6522 2.26716 24.8624 2.29695C25.0061 3.34978 25.0243 4.87318 24.2892 5.59161C23.3972 6.14762 22.2958 6.25185 21.3153 5.87291C21.1281 5.10896 21.248 4.30251 21.6497 3.62656L21.6497 3.62657ZM2.35036 2.30161C3.55851 2.27075 4.72363 2.75189 5.55746 3.62657C5.95867 4.30351 6.07856 5.11097 5.89087 5.87486C4.91442 6.25279 3.81704 6.14958 2.92816 5.5961C2.19052 4.88679 2.20772 3.35792 2.3504 2.30144L2.35036 2.30161ZM3.4042 15.8659C3.4042 13.1607 4.47879 10.5664 6.39164 8.65391C8.30409 6.74094 10.8985 5.66647 13.6037 5.66647C16.3089 5.66647 18.9033 6.74106 20.8157 8.65391C22.7287 10.5664 23.8032 13.1607 23.8032 15.8659C23.8032 18.5712 22.7286 21.1655 20.8157 23.078C18.9033 24.991 16.3089 26.0654 13.6037 26.0654C10.8995 26.0624 8.30707 24.9868 6.39475 23.0749C4.48282 21.1624 3.40731 18.5701 3.4042 15.8659ZM26.0697 43.0646H23.8032V38.5315H26.0697V43.0646ZM23.8032 45.3311H26.0697V47.5977H23.8032V45.3311ZM30.6028 47.5977H28.3363V45.3311H30.6028V47.5977ZM30.6028 43.0646H28.3363V38.5315H30.6028V43.0646ZM43.0688 43.0646H40.8023V38.5315H43.0688V43.0646ZM40.8023 45.3311H43.0688V47.5977H40.8023V45.3311ZM47.602 47.5977H45.3354V45.3311H47.602V47.5977ZM47.602 43.0646H45.3354V38.5315H47.602V43.0646ZM55.5349 30.5985C55.5329 32.1007 54.9354 33.541 53.8734 34.6035C52.811 35.6654 51.3706 36.2628 49.8685 36.2649H22.6699C21.1677 36.2629 19.7274 35.6654 18.665 34.6035C17.603 33.541 17.0056 32.1007 17.0035 30.5985V27.8493C19.2356 27.2118 21.2462 25.9652 22.8095 24.2486C24.3728 22.5325 25.4267 20.4146 25.8532 18.1324H49.8682C51.3704 18.1344 52.8107 18.7319 53.8732 19.7938C54.9351 20.8563 55.5325 22.2966 55.5346 23.7987L55.5349 30.5985Z" fill="black"/>
<path d="M49.8675 20.3992H41.9346V22.6657H49.8675C50.168 22.6657 50.4564 22.7851 50.6689 22.9976C50.8814 23.2101 51.0008 23.4985 51.0008 23.799V27.1988H53.2673V23.799C53.2673 22.8974 52.9091 22.0323 52.2717 21.3949C51.6342 20.7575 50.769 20.3992 49.8676 20.3992L49.8675 20.3992Z" fill="black"/>
<path d="M51.001 29.4653H53.2675V31.7319H51.001V29.4653Z" fill="black"/>
<path d="M21.5361 30.5986V28.332H19.2695V30.5986C19.2695 31.5001 19.6277 32.3653 20.2652 33.0027C20.9027 33.64 21.7679 33.9983 22.6693 33.9983H27.2024V31.7318H22.6693C22.0435 31.7318 21.536 31.2243 21.536 30.5985L21.5361 30.5986Z" fill="black"/>
</svg>
