<svg width="58" height="67" viewBox="0 0 58 67" fill="none" xmlns="http://www.w3.org/2000/svg">
<path d="M53.3601 32.308C52.0787 32.308 51.0399 31.2747 51.0399 30C51.0399 27.4498 48.9616 25.3842 46.3998 25.3842C45.1184 25.3842 44.0796 24.3517 44.0796 23.0762V4.61432C44.0796 2.06415 42.0014 0 39.4395 0H37.1193C34.5557 0 32.4806 2.06571 32.4806 4.61432V18.4602C32.4806 19.7357 31.4419 20.769 30.1605 20.769H27.8395C26.5581 20.769 25.5193 19.7358 25.5193 18.4602V4.61432C25.5193 2.06415 23.4411 0 20.8792 0H18.559C15.9971 0 13.9189 2.06571 13.9189 4.61432V23.0762C13.9189 24.3517 12.881 25.3842 11.5987 25.3842C9.03679 25.3842 6.95861 27.4515 6.95861 30C6.95861 31.2746 5.92072 32.308 4.64012 32.308C2.0765 32.308 0 34.3753 0 36.9237C0 39.4714 2.07825 41.538 4.64012 41.538C5.92152 41.538 6.95861 42.5713 6.95861 43.846C6.95861 44.483 7.47839 45 8.11865 45C8.75894 45 9.27869 44.483 9.27869 43.846C9.27869 41.2959 7.20045 39.2303 4.64004 39.2303C3.35783 39.2303 2.31903 38.197 2.31903 36.9239C2.31903 35.6493 3.35774 34.616 4.64004 34.616C7.20198 34.616 9.27869 32.5478 9.27869 30.0002C9.27869 28.7247 10.3174 27.6913 11.5989 27.6913C14.1625 27.6913 16.2375 25.6256 16.2375 23.077L16.2383 4.61432C16.2383 3.33884 17.277 2.30549 18.5593 2.30549H20.8795C22.1617 2.30549 23.1997 3.33875 23.1997 4.61432V18.4602C23.1997 21.0104 25.2787 23.076 27.8398 23.076H30.1608C32.7227 23.076 34.7995 21.0086 34.7995 18.4602V4.61432C34.7995 3.33884 35.8382 2.30549 37.1196 2.30549H39.4398C40.722 2.30549 41.7608 3.33875 41.7608 4.61432V23.0762C41.7608 25.6264 43.8374 27.6905 46.3994 27.6905C47.6817 27.6905 48.7205 28.7238 48.7205 29.9993C48.7205 32.5478 50.7971 34.6151 53.3591 34.6151C54.6405 34.6151 55.6793 35.6484 55.6793 36.9231C55.6793 38.1961 54.6406 39.2294 53.3591 39.2294C50.7955 39.2294 48.7205 41.2968 48.7205 43.8452C48.7205 44.4821 49.2386 44.9992 49.8797 44.9992C50.52 44.9992 51.0397 44.4821 51.0397 43.8452C51.0397 42.5705 52.0784 41.5372 53.3599 41.5372C55.9235 41.5372 58 39.4691 58 36.9229C58.0008 34.3736 55.9226 32.308 53.3607 32.308H53.3601Z" fill="black"/>
<path d="M49.8441 47.4871H39.4223V42.6911C39.7848 42.8169 40.1744 42.8867 40.5795 42.8867C42.4985 42.8867 44.0542 41.3451 44.0542 39.4425C44.0542 37.5407 42.4985 36 40.5795 36C38.6612 36 37.1072 37.5416 37.1072 39.4425V58.966C37.1072 60.2341 36.0703 61.2622 34.7903 61.2622H32.476C31.1969 61.2622 30.1599 60.2342 30.1599 58.966V56.5246C32.1576 56.0151 33.6339 54.218 33.6339 52.0793C33.6339 51.444 33.115 50.9313 32.4759 50.9313C31.8368 50.9313 31.3188 51.444 31.3188 52.0793C31.3188 53.3458 30.2819 54.3738 29.0019 54.3738C27.7228 54.3738 26.6859 53.3467 26.6859 52.0793C26.6859 51.444 26.1686 50.9313 25.5279 50.9313C24.8887 50.9313 24.3707 51.444 24.3707 52.0793C24.3707 54.218 25.8462 56.0168 27.8447 56.5263V58.9668C27.8447 60.235 26.8078 61.263 25.5278 61.263H23.2118C21.9327 61.263 20.8957 60.235 20.8957 58.9668V39.4425C20.8957 37.5407 19.3409 36 17.4218 36C15.5036 36 13.9479 37.5416 13.9479 39.4425C13.9479 41.3451 15.5036 42.8867 17.4218 42.8867C17.8277 42.8867 18.2173 42.8169 18.5798 42.6911V47.4871H8.15797C7.51883 47.4871 7 47.9998 7 48.6343C7 49.2696 7.51885 49.7823 8.15797 49.7823H18.5798V52.0794H10.474C9.83486 52.0794 9.31684 52.5921 9.31684 53.225C9.31684 53.8611 9.83406 54.373 10.474 54.373H18.5798V56.6715H12.7932C12.7924 56.6715 12.7907 56.6707 12.7883 56.6707C12.1491 56.6707 11.6311 57.1851 11.6311 57.8179C11.6311 58.4532 12.1483 58.966 12.7883 58.966V58.9668H18.5791C18.5791 61.5022 20.6536 63.5575 23.2094 63.5575H24.5131C25.0254 65.5291 26.8266 66.988 28.9723 67H28.9903H28.9993H29.0263C31.172 66.987 32.9716 65.5282 33.4847 63.5575H34.7884C37.3474 63.5575 39.4202 61.5007 39.4202 58.9668H45.2102C45.8493 58.9668 46.3681 58.4524 46.3681 57.8187C46.3681 57.1851 45.8493 56.6715 45.2102 56.6715H39.4202V54.373H47.5245C48.1637 54.373 48.6825 53.8611 48.6825 53.225C48.6825 52.5921 48.1637 52.0794 47.5245 52.0794H39.4202L39.421 49.7817H49.8428C50.482 49.7817 51 49.2689 51 48.6337C51.0016 48 50.4828 47.4872 49.8437 47.4872L49.8441 47.4871ZM40.5802 38.2936C41.221 38.2936 41.7382 38.8088 41.7382 39.4417C41.7382 40.0769 41.221 40.5897 40.5802 40.5897C39.9419 40.5897 39.423 40.0769 39.423 39.4417C39.4222 38.8096 39.9419 38.2936 40.5802 38.2936ZM17.422 40.5906C16.7829 40.5906 16.264 40.0778 16.264 39.4426C16.264 38.8097 16.7829 38.2945 17.422 38.2945C18.0611 38.2945 18.58 38.8097 18.58 39.4426C18.5816 40.0779 18.062 40.5906 17.422 40.5906ZM29.0017 64.7052H28.996C28.0598 64.7028 27.2537 64.1478 26.8912 63.3535C27.7169 63.1012 28.4436 62.6273 29.0017 62.001C29.5598 62.6282 30.2873 63.1012 31.113 63.3535C30.7488 64.151 29.9411 64.7052 29.0017 64.7052H29.0017Z" fill="black"/>
</svg>
