<svg width="62" height="43" viewBox="0 0 62 43" fill="none" xmlns="http://www.w3.org/2000/svg">
<path d="M8.31738 20.3496H10.3969V22.4291H8.31738V20.3496Z" fill="black"/>
<path d="M2.57372 19.1162C1.18819 20.0403 0.268223 21.5169 0.0500553 23.168C-0.168564 24.8186 0.335516 26.4835 1.43333 27.7363C2.53063 28.9886 4.11527 29.7072 5.78028 29.7072H49.4007C50.9956 29.7035 52.5756 29.3952 54.0544 28.7983C53.2677 30.3236 52.077 31.6029 50.6117 32.4968C49.1468 33.3908 47.4642 33.8643 45.748 33.8661H14.5558C13.07 33.8661 11.6969 34.6589 10.9539 35.9456C10.2112 37.2322 10.2112 38.8179 10.9539 40.1045C11.697 41.3912 13.0701 42.184 14.5558 42.184H48.8673V40.1045H14.5558C13.8127 40.1045 13.1262 39.7081 12.7549 39.0648C12.3835 38.4214 12.3835 37.6286 12.7549 36.9853C13.1262 36.342 13.8127 35.9456 14.5558 35.9456H45.748C48.3014 35.9409 50.7802 35.0827 52.7895 33.5077C54.7989 31.9323 56.2244 29.7308 56.8389 27.252C59.5896 25.251 61.4092 22.2181 61.8794 18.8496C62.35 15.4806 61.4314 12.0653 59.3343 9.38749C57.1945 6.63497 54.487 4.37534 51.3965 2.7619C48.306 1.14846 44.9041 0.219229 41.4228 0.03671C35.2679 -0.274285 29.1753 1.39717 24.0419 4.80514L19.8588 7.5939C17.6048 6.47154 14.9302 6.59641 12.791 7.92392C10.6516 9.25194 9.35235 11.5927 9.35746 14.1108V14.1182C9.35746 14.2733 9.36907 14.4302 9.37928 14.5801L2.57372 19.1162ZM25.1937 6.53472H25.1942C29.9543 3.37415 35.6033 1.82428 41.3096 2.11303C44.4943 2.27874 47.6055 3.12864 50.4328 4.60378C53.2601 6.07938 55.7364 8.14626 57.6938 10.6635C59.232 12.601 60.0262 15.0248 59.9325 17.497C59.8392 19.9692 58.8644 22.3263 57.1841 24.1421V18.2694H55.1046V24.5079C55.1009 25.0073 55.0578 25.5054 54.9747 25.9978C53.3064 27.0548 51.3741 27.6192 49.3995 27.6271H5.7791C4.7129 27.6276 3.69772 27.168 2.99497 26.3665C2.29175 25.5644 1.96869 24.4981 2.10888 23.4408C2.24906 22.3839 2.83808 21.4383 3.72552 20.847L9.86 16.7586V16.7689C9.91198 16.8998 9.97 17.0279 10.0285 17.1555C10.0661 17.2353 10.1023 17.3157 10.1418 17.3946C10.2012 17.512 10.2657 17.6266 10.3321 17.7418C10.3831 17.829 10.436 17.9154 10.488 18.0017C10.54 18.088 10.6189 18.2004 10.6885 18.2978C10.7582 18.3958 10.8259 18.4891 10.8965 18.5819C10.967 18.6743 11.0306 18.7495 11.1044 18.8316C11.1406 18.8743 11.1741 18.9212 11.2084 18.9625L11.2158 18.9574C11.3054 19.0614 11.3904 19.1654 11.4874 19.2568L12.9574 17.7868V17.7873C12.7973 17.6164 12.6487 17.4359 12.5127 17.2456C12.4245 17.13 12.3308 17.0191 12.2537 16.8961C12.1614 16.7443 12.0773 16.5874 12.0021 16.4259C11.9344 16.2917 11.8596 16.1617 11.8044 16.0225C11.7399 15.8466 11.6856 15.6674 11.6415 15.485C11.6053 15.3532 11.5561 15.2251 11.5301 15.09C11.4679 14.7697 11.4363 14.4443 11.4354 14.118V14.1106C11.4354 12.2534 12.4264 10.537 14.0347 9.60856C15.6431 8.67976 17.6251 8.67976 19.2334 9.60856C20.8418 10.5369 21.8328 12.2534 21.8328 14.1106C21.8295 14.4114 21.8003 14.7112 21.7455 15.0069C21.7311 15.0891 21.7144 15.1712 21.6968 15.2524C21.6374 15.5272 21.5557 15.7965 21.4522 16.0582L21.4188 16.1381C21.1584 16.7536 20.7814 17.3129 20.3094 17.7859L21.7799 19.2563C22.2278 18.8061 22.6154 18.2997 22.9329 17.7496C22.9454 17.7287 22.9538 17.706 22.9649 17.6851C23.2559 17.1722 23.482 16.6254 23.6389 16.0568C23.6547 16.0016 23.6667 15.9454 23.6816 15.8892C23.7387 15.6595 23.7856 15.4274 23.8199 15.1916C23.8301 15.122 23.8427 15.0523 23.851 14.9836V14.9841C23.8886 14.6945 23.909 14.4025 23.9123 14.1105C23.9123 12.1345 23.106 10.2445 21.6801 8.87653L25.1937 6.53472Z" fill="black"/>
<path d="M16.6353 10.9919C15.8077 10.9919 15.0143 11.3206 14.4291 11.9054C13.8443 12.4908 13.5156 13.2844 13.5156 14.1116C13.5161 14.9392 13.8447 15.7325 14.43 16.3173L15.9001 14.8458V14.8463C15.603 14.5487 15.5139 14.1018 15.6745 13.7128C15.8355 13.3243 16.2148 13.0713 16.6353 13.0713C17.0558 13.0713 17.4351 13.3243 17.5961 13.7128C17.7567 14.1017 17.6676 14.5487 17.3705 14.8463L18.8406 16.3177V16.3173C19.4259 15.7324 19.7545 14.9391 19.755 14.1116C19.755 13.2844 19.4263 12.4907 18.8415 11.9054C18.2562 11.3206 17.4628 10.9919 16.6353 10.9919H16.6353Z" fill="black"/>
<path d="M50.9473 40.1047H53.0267V42.1842H50.9473V40.1047Z" fill="black"/>
</svg>
