<svg width="62" height="76" viewBox="0 0 62 76" fill="none" xmlns="http://www.w3.org/2000/svg">
<path d="M14.8429 22.9241C14.8429 23.9206 14.035 24.7285 13.0378 24.7285C12.0414 24.7285 11.2334 23.9206 11.2334 22.9241C11.2334 21.9276 12.0414 21.1196 13.0378 21.1196C14.035 21.1196 14.8429 21.9276 14.8429 22.9241Z" fill="black"/>
<path d="M61.0963 28.9389H53.2427C51.739 28.9389 50.3351 29.5404 49.2989 30.5765C48.2627 31.6127 47.6612 33.0494 47.6947 34.5532V35.8901L25.1022 35.9236V24.0929C25.1022 18.7792 21.5597 14.2674 16.6807 12.8301C19.0537 11.4597 20.6574 8.88625 20.6574 5.97932C20.6574 5.4448 20.2227 5.0436 19.7216 5.0436H14.2407C14.0069 5.0436 13.7725 5.0436 13.5387 5.07709C13.4383 3.23914 12.6365 1.46755 11.2326 0.231092C10.8314 -0.103145 10.2634 -0.0696495 9.89571 0.298063L6.75432 3.80711C5.51784 5.17752 4.88288 6.982 4.98336 8.81995C5.05033 10.1904 5.51789 11.4938 6.32029 12.5628V12.9305C6.32029 12.9975 6.32029 13.0645 6.35378 13.0974C6.35378 13.1643 6.32029 13.1978 6.32029 13.2642V18.7786H0.939645C0.57193 18.7786 0.237692 18.9789 0.104379 19.3132C-0.0624302 19.6474 -0.0295617 20.0151 0.204834 20.3158L2.64426 23.4572L0.204834 26.5986C-0.028949 26.8659 -0.0624286 27.2671 0.104379 27.6013C0.271186 27.9356 0.605409 28.1359 0.939645 28.1359H6.32029V44.1103C6.32029 44.3441 6.32029 44.5785 6.35378 44.7788V45.0795C6.45423 46.9845 6.78847 48.8224 7.32299 50.594C7.32299 50.6275 7.35648 50.6944 7.35648 50.7279C9.62906 57.7462 15.3774 63.1937 22.5625 65.0316V73.8543H19.5879C19.0534 73.8543 18.6522 74.289 18.6522 74.79C18.6522 75.2911 19.0869 75.7258 19.5879 75.7258H23.4983C24.0328 75.7258 24.434 75.2911 24.434 74.79V65.3993C25.57 65.5662 26.7066 65.6666 27.8762 65.6666C28.11 65.6666 28.3444 65.6666 28.5447 65.6331V73.8208H26.5727C26.0382 73.8208 25.637 74.2555 25.637 74.7566C25.637 75.2576 26.0717 75.6923 26.5727 75.6923H29.5138C30.0483 75.6923 30.4495 75.2576 30.4495 74.7566V65.4992C37.5348 64.6639 43.5837 60.3524 46.8589 54.3369C46.8924 54.27 46.9259 54.203 46.9594 54.1366C47.8951 52.3322 48.6305 50.3938 49.0312 48.3549C49.3654 48.7561 49.8001 49.1238 50.2341 49.458C51.2368 50.1265 52.4064 50.4942 53.6094 50.4942C54.3783 50.4942 55.1131 50.3602 55.8485 50.0595C56.2162 49.9255 56.45 49.5585 56.45 49.1907V43.7097C56.45 41.3038 55.3803 39.1644 53.6762 37.6941H54.0774C58.4218 37.6941 61.998 34.1516 61.998 29.7736C62.0321 29.373 61.6309 28.9383 61.0964 28.9383L61.0963 28.9389ZM12.1029 35.9906H8.25958V28.3039C10.4653 28.7386 12.1029 30.677 12.1029 33.0161V35.9906ZM8.22608 44.1784V37.8949H12.0694V39.4991C12.0694 40.0336 12.5041 40.4348 13.0052 40.4348C13.5062 40.4348 13.9409 40.0001 13.9409 39.4991V37.8614L23.1982 37.828C23.2652 39.7664 23.6664 41.6043 24.3014 43.3089C24.0676 43.242 23.8004 43.175 23.5325 43.175H23.499C22.6637 43.175 21.8949 43.5427 21.3937 44.2112L21.093 44.6124C20.959 44.8126 20.7252 44.9131 20.458 44.9131C20.2242 44.9131 19.9898 44.8126 19.823 44.6124L19.4553 44.1442C18.9543 43.5092 18.1853 43.108 17.3835 43.108C16.5482 43.0745 15.7794 43.4423 15.2782 44.0772L14.877 44.5783C14.7102 44.7786 14.4759 44.879 14.2421 44.879C14.0083 44.879 13.7739 44.7451 13.6406 44.5448L13.6071 44.5113C13.1389 43.8093 12.3371 43.3753 11.4683 43.3418C10.5996 43.3418 9.79721 43.7095 9.26256 44.4114C9.06227 44.6787 8.79439 44.7122 8.62758 44.7122C8.46078 44.7122 8.32684 44.6787 8.19289 44.5783C8.22576 44.479 8.22576 44.3122 8.22576 44.1783L8.22608 44.1784ZM23.2317 24.1258V35.99L13.9744 36.0235V33.0154C13.9744 29.6402 11.468 26.866 8.22608 26.3983V14.2668H13.3729C18.7869 14.2668 23.2317 18.6781 23.2317 24.1256V24.1258ZM18.7199 6.94801C18.2517 9.82208 15.7788 12.0278 12.7713 12.0278H8.32641L8.29292 11.9943C8.76109 9.12028 11.234 6.94802 14.2416 6.94802L18.7199 6.94801ZM8.19322 5.11006L10.6661 2.36981C11.3681 3.27205 11.7358 4.37523 11.7023 5.51121C9.63055 6.21316 7.95944 7.7838 7.05714 9.75572C6.65532 8.15161 7.02303 6.41335 8.19314 5.1099L8.19322 5.11006ZM4.61719 22.9561L2.91259 20.7504H6.3548V26.3312H2.91259L4.61719 24.1254C4.88445 23.7577 4.88445 23.2902 4.61719 22.9559V22.9561ZM9.59652 51.3635C13.1056 51.4304 16.3475 52.7339 18.787 55.0729C21.0596 57.2451 22.4301 60.1527 22.5299 63.1272C16.6148 61.4568 11.8358 57.0454 9.59652 51.3635ZM27.9442 63.8962C26.7412 63.8962 25.5711 63.7957 24.4352 63.5955C24.4352 59.9524 22.8645 56.3769 20.0908 53.7366C17.1497 50.9294 13.2065 49.4586 8.96202 49.5256C8.69476 48.5899 8.49385 47.6207 8.39402 46.618H8.66128H8.69477C9.53004 46.618 10.2989 46.2168 10.8 45.5484C10.9668 45.3481 11.2012 45.2476 11.435 45.2476C11.7023 45.2476 11.936 45.3816 12.07 45.5819L12.1035 45.6153C12.5716 46.3173 13.34 46.7514 14.1753 46.7848C15.0105 46.8183 15.8129 46.4841 16.3475 45.8156L16.7487 45.3146C16.9155 45.1143 17.1164 45.0139 17.3837 45.0139C17.6175 45.0139 17.8519 45.1143 17.9852 45.3146L18.3529 45.7828C18.8539 46.4512 19.6229 46.8189 20.4582 46.8189C21.2935 46.8189 22.0623 46.4512 22.5634 45.7828L22.8642 45.3816C23.031 45.1813 23.2319 45.0808 23.4992 45.0808C23.733 45.0808 23.9673 45.1813 24.1341 45.3816L24.4014 45.7493C24.8026 46.2838 25.4041 46.6515 26.039 46.752C29.1804 51.598 34.6614 54.8064 40.8438 54.8064H44.4199C40.9448 60.2867 34.863 63.8964 27.9438 63.8964L27.9442 63.8962ZM47.6285 44.1785C47.6285 47.3534 46.8596 50.328 45.5568 52.9677H40.9116C32.423 52.9677 25.4718 46.2503 25.1376 37.8287L47.6619 37.7953L47.6613 44.1785L47.6285 44.1785ZM54.6133 43.8108V48.5898C53.4773 48.8571 52.3407 48.6568 51.3379 47.9883C50.1684 47.2194 49.5335 45.9494 49.5335 44.5461V37.8287C52.4076 38.2968 54.6133 40.8032 54.6133 43.8108V43.8108ZM54.1458 35.9237H49.6004V34.5533C49.6004 33.5506 49.9681 32.6149 50.6701 31.9129C51.372 31.211 52.3077 30.8098 53.277 30.8098H60.0949C59.6267 33.718 57.1197 35.9237 54.1456 35.9237H54.1458Z" fill="black"/>
</svg>
