<svg width="61" height="56" viewBox="0 0 61 56" fill="none" xmlns="http://www.w3.org/2000/svg">
<path d="M31.2361 28.8643H31.2305V28.8572C31.2305 28.2422 30.7322 27.7439 30.1157 27.7439C29.4999 27.7439 29 28.2422 29 28.8572C29 28.8864 29.0024 28.914 29.0047 28.9424V42.2501C29.0047 42.8659 29.503 43.3658 30.1204 43.3658C30.7378 43.3658 31.2361 42.8659 31.2361 42.2501V28.8643Z" fill="black"/>
<path d="M32.5035 22.0278C32.0682 21.5926 31.3618 21.5926 30.9258 22.0278L30.1263 22.8258L29.3315 22.0302C28.8955 21.595 28.1874 21.595 27.7538 22.0302C27.3178 22.4654 27.3178 23.1727 27.7538 23.6079L29.3315 25.1848C29.6035 25.4584 29.9828 25.5601 30.3352 25.4915C30.5512 25.4521 30.7594 25.3504 30.925 25.1833L32.5027 23.6055C32.9387 23.1695 32.9387 22.4631 32.5035 22.0278H32.5035Z" fill="black"/>
<path d="M28.7088 46.0798L28.7143 46.0743L27.1366 44.4966C26.7014 44.0614 25.9949 44.0614 25.5596 44.4966C25.122 44.9326 25.122 45.6391 25.5596 46.0743L27.0396 47.555C27.0656 47.5889 27.0948 47.6228 27.1255 47.6536C27.5608 48.0888 28.2672 48.0888 28.7032 47.6536C29.1369 47.2176 29.1377 46.5174 28.7088 46.0798L28.7088 46.0798Z" fill="black"/>
<path d="M34.7444 44.4974C34.3083 44.0622 33.6019 44.0613 33.1666 44.4974L31.5897 46.0751C31.1537 46.5111 31.1537 47.2176 31.5897 47.6528C32.0249 48.088 32.7314 48.088 33.1666 47.6528L34.7444 46.0751C35.1796 45.6391 35.1796 44.9326 34.7444 44.4974Z" fill="black"/>
<path d="M24.5746 27.8511C24.5533 26.0219 23.0647 24.5459 21.23 24.5459C19.3968 24.5459 17.9066 26.0219 17.8846 27.8511H17.8838V32.3604C17.8838 34.2085 19.3819 35.7058 21.2308 35.7058C23.079 35.7058 24.5778 34.2077 24.5778 32.3604V27.8511H24.5746ZM22.3456 32.3596C22.3456 32.9754 21.8473 33.4752 21.2299 33.4752C20.6126 33.4752 20.1143 32.9754 20.1143 32.3596V27.8913C20.1143 27.2755 20.6126 26.7756 21.2299 26.7756C21.8473 26.7756 22.3456 27.2755 22.3456 27.8913V32.3596Z" fill="black"/>
<path d="M55.7884 0.00227157H24.5527C22.0991 0.0172524 20.1137 2.00733 20.1137 4.46348V13.3889C20.1137 14.6213 19.1147 15.6187 17.8823 15.6187V1.11646C17.8823 0.830247 17.7735 0.544834 17.5566 0.326416C17.119 -0.108805 16.4126 -0.108805 15.9789 0.326416C15.7621 0.544814 15.6525 0.830247 15.6525 1.11646V16.2164C14.3247 16.9852 13.429 18.4169 13.4211 20.0594V20.0791C11.5721 20.0791 10.0741 21.5779 10.0741 23.4261C10.0741 25.2742 11.5722 26.7731 13.4211 26.7731V35.7016C13.4211 38.1679 15.4183 40.1642 17.8823 40.1642C19.1147 40.1642 20.1137 41.1632 20.1137 42.3964V46.852H17.8823V44.6206C17.8823 42.7716 16.3842 41.2736 14.5369 41.2736C12.688 41.2736 11.1891 42.7716 11.1891 44.6206V46.852H4.46355C3.23039 46.852 2.23214 45.853 2.23214 44.6206V40.1688H4.46355C6.3117 40.1688 7.80896 38.6708 7.80896 36.8218C7.80896 34.9729 6.31087 33.4748 4.46355 33.4748H2.23214V13.3778H4.46355C6.3117 13.3778 7.80896 11.8797 7.80896 10.0324C7.80896 8.1834 6.31087 6.68534 4.46355 6.68534H2.23214V1.11882C2.23214 0.8326 2.12254 0.547187 1.90414 0.328769C1.46892 -0.106452 0.762455 -0.106452 0.326427 0.328769C0.11039 0.547167 0 0.8326 0 1.11882V44.6248C0 47.0887 1.99953 49.086 4.46263 49.086H20.1136V49.0915C20.1136 51.5555 22.1123 53.5542 24.5762 53.5542H25.1597C25.9127 54.9387 27.38 55.88 29.065 55.8865V55.8873H31.2964H31.2948C32.9814 55.8818 34.4463 54.9403 35.2016 53.555H35.7212V53.5542C38.1718 53.5368 40.1523 51.5467 40.1523 49.093V49.0874H55.7875H55.7907H55.8041C58.2618 49.0772 60.251 47.0847 60.251 44.6262V4.46483C60.251 1.99846 58.2538 0.00139379 55.7884 0.00139379L55.7884 0.00227157ZM13.4229 24.5448C12.8055 24.5448 12.3072 24.0449 12.3072 23.4291C12.3072 22.8118 12.8055 22.3135 13.4229 22.3135V24.5448ZM2.23373 8.91662H4.46515C5.08094 8.91662 5.58081 9.41494 5.58081 10.0323C5.58081 10.6473 5.08092 11.148 4.46515 11.148H2.23373V8.91662ZM2.23373 35.7117H4.46515C5.08094 35.7117 5.58081 36.2101 5.58081 36.8266C5.58081 37.4424 5.08092 37.9423 4.46515 37.9423H2.23373V35.7117ZM15.6533 46.8559H13.4219V44.6245C13.4219 44.0071 13.9202 43.5088 14.5376 43.5088C15.1526 43.5088 15.6524 44.0071 15.6524 44.6245L15.6516 46.8559H15.6533ZM40.1534 2.23369H42.3856V4.48165C42.3856 5.09665 41.8857 5.59731 41.27 5.59731C40.6526 5.59731 40.1543 5.09742 40.1543 4.48165L40.1551 2.23369H40.1534ZM22.3467 8.91743H24.6403C25.2553 8.91743 25.7552 9.41574 25.7552 10.0331C25.7552 10.6481 25.2553 11.1488 24.6403 11.1488H22.3467V8.91743ZM31.2809 53.6567H29.0825C28.6946 53.6567 28.3288 53.5558 28.0102 53.3807C28.8452 53.141 29.5801 52.664 30.1375 52.0277C30.7076 52.6814 31.4645 53.1647 32.3255 53.3981C32.0117 53.5621 31.6569 53.6567 31.2808 53.6567H31.2809ZM46.8475 46.8555H44.616V44.6241C44.616 44.0067 45.1144 43.5084 45.7317 43.5084C46.3475 43.5084 46.8466 44.0067 46.8466 44.6241V46.8555H46.8475ZM58.0207 37.9428H55.7727C55.1569 37.9428 54.6578 37.4429 54.6578 36.8271C54.6578 36.2113 55.1561 35.7122 55.7727 35.7122H58.0207V37.9428ZM58.0207 11.1456H55.7727V11.1464C55.1569 11.1464 54.6578 10.6457 54.6578 10.0307C54.6578 9.41494 55.1561 8.91507 55.7727 8.91507H58.0207V11.1456ZM58.0207 6.68379H55.7727C53.9238 6.68379 52.4257 8.18188 52.4257 10.0308C52.4257 11.879 53.9238 13.3762 55.7727 13.3762H58.0207V33.4781H55.7727C53.9238 33.4781 52.4257 34.9762 52.4257 36.8251C52.4257 38.6741 53.9238 40.1721 55.7727 40.1721H58.0207V44.6239C58.0207 45.8547 57.0241 46.8529 55.7917 46.8553H49.0795V44.6239C49.0795 42.7749 47.5806 41.2769 45.7325 41.2769C43.8835 41.2769 42.3854 42.7749 42.3854 44.6239V46.8553H40.1532V42.3997C40.1532 41.1666 41.1522 40.1675 42.3854 40.1675C44.8494 40.1675 46.8466 38.1703 46.8466 35.7049V26.7764C48.6948 26.7764 50.1937 25.2775 50.1937 23.4294C50.1937 21.5804 48.6948 20.0824 46.8466 20.0824C46.8466 17.6184 44.8479 15.6197 42.3854 15.6197C41.1523 15.6197 40.1532 14.6215 40.1532 13.3899C40.1532 13.1037 40.0444 12.8183 39.8276 12.5999C39.39 12.1647 38.6835 12.1647 38.2499 12.5999C38.033 12.8191 37.9234 13.1037 37.9234 13.3899C37.9242 15.8539 39.9222 17.8512 42.3861 17.8512C43.6184 17.8512 44.6175 18.8501 44.6175 20.0826V35.7051C44.6175 36.9375 43.6185 37.9373 42.3861 37.9373C39.9205 37.9373 37.9234 39.936 37.9234 42.3999V49.0924C37.9234 50.3247 36.9252 51.3238 35.692 51.3238H33.4945C32.2614 51.3238 31.2623 50.3248 31.2623 49.0924H31.2387C31.2387 48.8077 31.1291 48.5215 30.9107 48.3047C30.4754 47.8687 29.769 47.8687 29.3337 48.3047C29.1153 48.5215 29.0057 48.8077 29.0057 49.0939C29.0057 50.3263 28.0068 51.3237 26.7743 51.3237H24.5768C23.3444 51.3237 22.3454 50.3248 22.3454 49.0923V42.3999C22.3454 39.9343 20.3459 37.9373 17.8828 37.9373C16.6504 37.9373 15.6514 36.9367 15.6514 35.7051L15.6521 20.833V20.084C15.6521 18.8516 16.6511 17.8526 17.8836 17.8526C20.3475 17.8526 22.3462 15.8554 22.3462 13.3914V13.3787H24.6398C26.4879 13.3787 27.9868 11.8807 27.9868 10.0333C27.9868 8.18438 26.4879 6.68632 24.6398 6.68632H22.3462V4.4652C22.3462 3.23283 23.3452 2.2354 24.5776 2.2354H37.9239V4.48336C37.9239 6.33151 39.4228 7.82877 41.2709 7.82877C43.1199 7.82877 44.6179 6.33068 44.6179 4.48336V2.2354H55.7905C57.0237 2.2354 58.0228 3.23359 58.0228 4.4652L58.022 6.6839L58.0207 6.68379ZM46.8475 24.5448V22.3134C47.4648 22.3134 47.9631 22.8117 47.9631 23.429C47.9631 24.0448 47.4648 24.5447 46.8475 24.5447V24.5448Z" fill="black"/>
<path d="M42.3842 27.8511C42.3613 26.0219 40.8742 24.5459 39.0387 24.5459C37.2056 24.5459 35.7178 26.0219 35.6941 27.8511H35.6934V32.3604C35.6934 34.2085 37.1914 35.7058 39.0388 35.7058C40.8877 35.7058 42.3866 34.2077 42.3866 32.3604V27.8511H42.3842ZM40.1535 32.3596C40.1535 32.9754 39.6552 33.4752 39.0379 33.4752C38.4229 33.4752 37.923 32.9754 37.923 32.3596V27.8913C37.923 27.2755 38.4229 26.7756 39.0379 26.7756C39.6552 26.7756 40.1535 27.2755 40.1535 27.8913V32.3596Z" fill="black"/>
</svg>
