<svg width="69" height="62" viewBox="0 0 69 62" fill="none" xmlns="http://www.w3.org/2000/svg">
<path d="M65.065 25.7697V25.7706C64.3899 25.7697 63.8407 25.2205 63.8407 24.5438C63.8355 21.8359 61.6395 19.6416 58.9315 19.6416C58.2565 19.6408 57.7072 19.0941 57.7046 18.4191V18.413C57.7072 17.738 58.253 17.1888 58.9289 17.1879C63.6758 17.1879 67.5237 13.3408 67.5237 8.59396C67.5237 3.84708 63.6749 0 58.9289 0H56.4752C51.7283 0 47.8803 3.84708 47.8803 8.59396H47.8777C47.8777 9.2716 47.3267 9.82167 46.6491 9.82167H39.2855C38.6078 9.82167 38.0586 9.27157 38.0586 8.59396H38.0491C38.0491 6.56367 36.4075 4.91591 34.3764 4.91258H34.3564C32.3279 4.91778 30.6846 6.56458 30.6846 8.59396H30.6273C30.6273 9.2716 30.079 9.82167 29.3996 9.82167H22.0957C21.4163 9.82167 20.8689 9.27157 20.8689 8.59396L20.8654 8.59483C20.8654 3.84972 17.0165 0.000867648 12.273 0.000867648H9.81659C5.07237 0.000867648 1.22418 3.84795 1.22418 8.59483C1.22418 13.3417 5.07304 17.1888 9.81659 17.1888V17.1879C10.4934 17.1888 11.0417 17.7363 11.0417 18.413V18.4191C11.0391 19.0933 10.4933 19.6408 9.81659 19.6416C7.10875 19.6416 4.91356 21.8342 4.90823 24.542H4.90649C4.90649 25.2188 4.35901 25.7688 3.68138 25.7697V25.7688C1.64762 25.7688 0 27.4182 0 29.452V44.1828C0 46.214 1.64331 47.8609 3.67183 47.866C4.34946 47.866 4.89867 48.4144 4.89867 49.0928C4.89867 51.8069 7.09815 54.0036 9.80947 54.0036L14.7203 54.0028C15.3979 54.0028 15.948 53.4527 15.948 52.7759C15.948 52.0966 15.3979 51.5482 14.7203 51.5482H9.80947C8.45333 51.5482 7.35396 50.4489 7.35396 49.0927C7.35396 47.0598 5.71065 45.4155 3.68213 45.4087C3.00276 45.4087 2.45356 44.8603 2.45356 44.1818V29.4527H2.45443C2.45443 28.7751 3.0019 28.2259 3.67867 28.225V28.2259C5.70983 28.2259 7.35672 26.5817 7.36183 24.5532H7.3627C7.3627 23.197 8.4594 22.0994 9.81465 22.0977C11.8432 22.0977 13.4892 20.4569 13.4987 18.4309V18.4014C13.49 16.3738 11.8458 14.7321 9.81465 14.7321C6.42647 14.7321 3.67954 11.9842 3.67954 8.59517C3.67954 5.2052 6.42558 2.45649 9.81643 2.45649H12.2728C15.6628 2.45649 18.4115 5.20432 18.4115 8.59517C18.4115 10.6281 20.0574 12.2748 22.0887 12.2765H29.4559V12.2757C31.4619 12.2462 33.0817 10.6098 33.0817 8.59519H33.1381C33.1381 7.91755 33.6882 7.36747 34.3658 7.36747H34.3667C35.0417 7.36747 35.5918 7.91757 35.5918 8.59519H35.6013C35.6013 10.6289 37.2508 12.2757 39.2818 12.2783H46.6482C48.6819 12.2783 50.334 10.6289 50.334 8.59519H50.3366C50.3366 5.20522 53.0844 2.45651 56.4761 2.45651H58.9299C62.3216 2.45651 65.0694 5.20434 65.0694 8.59519C65.0694 11.9834 62.3216 14.7312 58.9343 14.7321C56.9032 14.7321 55.2589 16.3737 55.2512 18.4015V18.431C55.259 20.4569 56.9032 22.0977 58.9343 22.0977C60.2879 22.0986 61.3863 23.197 61.3863 24.5532H61.3889C61.3941 26.5818 63.0383 28.2259 65.072 28.2259V28.225C65.7471 28.2259 66.2937 28.7751 66.2937 29.4528V44.1836C66.2937 44.8613 65.7453 45.4122 65.0668 45.4122C63.0383 45.4174 61.3959 47.0625 61.3959 49.0936C61.3959 50.4497 60.2949 51.5491 58.9395 51.5491H54.0303C53.3526 51.5491 52.8034 52.0975 52.8034 52.7768C52.8034 53.4536 53.3518 54.0045 54.0303 54.0045H58.9395V54.0036C61.6509 54.0036 63.8487 51.8059 63.8487 49.0944C63.8487 48.4168 64.3971 47.8667 65.0773 47.8667C67.1059 47.8615 68.7483 46.2147 68.7483 44.1835L68.75 29.4527C68.7483 27.4189 67.1006 25.7695 65.0651 25.7695L65.065 25.7697Z" fill="black"/>
<path d="M7.41037 32.8331C7.41037 32.1555 7.95873 31.6054 8.63548 31.6054C9.31485 31.6054 9.86319 31.0553 9.86319 30.3777C9.86319 29.7001 9.31483 29.1509 8.63548 29.1509C6.60084 29.1509 4.9541 30.7994 4.9541 32.8323V40.8312C4.9541 42.8649 6.6009 44.5143 8.63548 44.5143C9.31485 44.5143 9.86319 43.9634 9.86319 43.2857C9.86319 42.6081 9.31483 42.0589 8.63548 42.0589C7.95871 42.0589 7.41037 41.5105 7.41037 40.8321V32.8331Z" fill="black"/>
<path d="M13.5464 34.3768C14.2241 34.3768 14.7741 33.8284 14.7741 33.1491C14.7741 32.4715 14.2241 31.9214 13.5464 31.9214C11.5118 31.9214 9.86328 33.5708 9.86328 35.6045V38.0609C9.86328 40.0947 11.5127 41.7441 13.5464 41.7441C14.2241 41.7441 14.7741 41.194 14.7741 40.5164C14.7741 39.8388 14.2241 39.2887 13.5464 39.2887C12.8688 39.2887 12.3187 38.7403 12.3187 38.0618V35.603C12.3187 34.9254 12.8688 34.377 13.5464 34.377V34.3768Z" fill="black"/>
<path d="M61.3375 40.8316C61.3375 41.5092 60.7891 42.0584 60.1106 42.0584C59.433 42.0584 58.8838 42.6068 58.8838 43.2853C58.8838 43.9629 59.4321 44.5138 60.1106 44.5138C62.1444 44.5138 63.7938 42.8644 63.7938 40.8307V32.8318C63.7938 30.798 62.1444 29.1504 60.1106 29.1504C59.433 29.1504 58.8838 29.6988 58.8838 30.3781C58.8838 31.0549 59.4321 31.6049 60.1106 31.6049C60.7883 31.6049 61.3375 32.155 61.3375 32.8327V40.8316Z" fill="black"/>
<path d="M55.2005 39.2856C54.5228 39.2865 53.9736 39.8357 53.9736 40.5133C53.9736 41.1927 54.522 41.741 55.2005 41.741C57.2342 41.741 58.8836 40.0916 58.8836 38.0579V35.6023C58.8836 33.5686 57.2342 31.9192 55.2005 31.9192V31.9201C54.5228 31.9201 53.9736 32.4684 53.9736 33.1469C53.9736 33.8263 54.522 34.3746 55.2005 34.3746C55.8781 34.3746 56.4273 34.923 56.4273 35.6015V38.0579C56.4273 38.7372 55.879 39.2856 55.2005 39.2856V39.2856Z" fill="black"/>
<path d="M20.8633 23.6641C20.8633 25.6978 22.5118 27.3454 24.5464 27.3454C24.9768 27.3454 25.3898 27.2708 25.7733 27.1363V38.3957C25.7733 40.4295 27.4227 42.0789 29.4564 42.0789C30.1358 42.0789 30.6842 42.6272 30.6842 43.3057C30.6842 45.3369 32.3283 46.9838 34.3587 46.9889H34.3673H34.3708H34.3803C36.4063 46.9811 38.0497 45.3343 38.0497 43.3057H38.0593C38.0593 42.629 38.6076 42.0815 39.2835 42.0789H39.3061V42.078C41.3294 42.0693 42.9666 40.426 42.9719 38.4009V27.137C43.3537 27.2724 43.7667 27.3461 44.1988 27.3461C46.2325 27.3461 47.8792 25.6976 47.8792 23.6648C47.8784 21.6301 46.2316 19.9807 44.1979 19.9807C42.1615 19.9807 40.5147 21.6301 40.5147 23.6639V38.3956C40.5147 39.0732 39.9637 39.6225 39.2861 39.6225H39.2766C37.248 39.6277 35.6039 41.2745 35.6039 43.3056H35.5961C35.5961 43.9832 35.0451 44.5325 34.3675 44.5325H34.3649C33.6881 44.5325 33.1406 43.9824 33.1398 43.3056H33.1406C33.1406 41.2719 31.4912 39.6225 29.4575 39.6225C28.7781 39.6225 28.2298 39.0741 28.2298 38.3956H28.2289L28.228 23.6639C28.228 21.6301 26.5812 19.9807 24.5466 19.9807C22.5121 19.9807 20.8635 21.6292 20.8635 23.6639L20.8633 23.6641ZM44.1968 22.4355C44.8744 22.4355 45.4236 22.9856 45.4236 23.6632C45.4236 24.3408 44.8752 24.8909 44.1968 24.8909C43.5191 24.8909 42.9699 24.3408 42.9699 23.6632C42.9708 22.9847 43.5191 22.4355 44.1968 22.4355ZM24.5453 22.4355C25.2247 22.4355 25.7722 22.9856 25.7722 23.6632C25.7722 24.3408 25.2247 24.8909 24.5453 24.8909C23.8677 24.8909 23.3176 24.3408 23.3176 23.6632C23.3176 22.9847 23.8677 22.4355 24.5453 22.4355Z" fill="black"/>
<path d="M30.6857 34.7122C30.0081 34.7122 29.458 35.2605 29.458 35.939C29.458 36.6166 30.0081 37.1667 30.6857 37.1667H38.0503C38.7305 37.1667 39.2771 36.6166 39.2771 35.939C39.2771 35.2614 38.7314 34.7122 38.0503 34.7122H30.6857Z" fill="black"/>
<path d="M15.9503 23.6641H15.9556C15.9556 27.5539 18.5412 30.8388 22.088 31.8971V34.7136C22.088 35.3912 22.639 35.9404 23.3157 35.9404C23.9951 35.9404 24.5434 35.3921 24.5434 34.7136V32.2572H24.5486V29.8017C21.1578 29.8017 18.41 27.0539 18.41 23.663C18.41 22.9854 17.8599 22.4353 17.1822 22.4353C16.5046 22.4353 15.9554 22.9854 15.9554 23.663V23.473C15.9537 23.5372 15.9502 23.5997 15.9502 23.6639L15.9503 23.6641Z" fill="black"/>
<path d="M44.1997 34.7121C44.1997 35.3898 44.748 35.939 45.4265 35.939C46.1041 35.939 46.6533 35.3906 46.6533 34.7121L46.6525 31.8957C50.2004 30.8371 52.7876 27.553 52.7876 23.6626H52.7902C52.7902 23.5993 52.785 23.536 52.785 23.4726V23.6158C52.7598 22.9599 52.2219 22.4358 51.5607 22.4358C50.8805 22.4358 50.3339 22.9859 50.3339 23.6635C50.3339 27.0535 47.5834 29.8022 44.1943 29.8022V32.2577H44.1995L44.1997 34.7121Z" fill="black"/>
<path d="M24.5421 15.0703C24.4736 15.0703 24.4076 15.0729 24.3391 15.0755C24.3044 15.0729 24.2671 15.0703 24.2306 15.0703C23.553 15.0703 23.0029 15.6204 23.0029 16.2981C23.0029 16.9748 23.553 17.5249 24.2306 17.5249V17.5336C24.3339 17.5284 24.438 17.5258 24.5412 17.5258C27.9321 17.5258 30.6808 20.2736 30.6808 23.6644H30.6895C30.7381 24.2987 31.2682 24.7976 31.912 24.7976C32.5896 24.7976 33.1388 24.2475 33.1388 23.5699C33.1388 23.5161 33.1336 23.464 33.1293 23.4128C32.9957 18.7821 29.2031 15.0703 24.5422 15.0703L24.5421 15.0703Z" fill="black"/>
<path d="M38.0491 23.6642H38.0586C38.0586 20.2733 40.8065 17.5255 44.1982 17.5255C44.3023 17.5255 44.4047 17.5281 44.5071 17.5333V17.5246C45.1873 17.5246 45.7357 16.9745 45.7357 16.2978C45.7357 15.6201 45.1873 15.0701 44.5071 15.0701C44.4706 15.0701 44.4359 15.0727 44.4004 15.0753C44.3318 15.0727 44.2676 15.0701 44.1991 15.0701C39.5373 15.0701 35.7448 18.7819 35.6111 23.4117C35.6033 23.4638 35.6016 23.5149 35.6016 23.5687C35.6016 24.2464 36.1499 24.7965 36.8284 24.7965C37.4739 24.7965 38.0006 24.2976 38.0492 23.6642L38.0491 23.6642Z" fill="black"/>
<path d="M54.0196 48.2148C54.0196 47.5371 53.4712 46.9879 52.7927 46.9879H52.7875H50.3356V44.5324H52.792V44.5316C53.467 44.5289 54.0136 43.9815 54.0136 43.3047C54.0136 42.628 53.4679 42.0805 52.792 42.0779H50.3356V42.077C50.3356 39.3638 48.1361 37.1677 45.4263 37.1677C44.7487 37.1677 44.1995 37.7161 44.1995 38.3955C44.1995 39.0731 44.7478 39.6223 45.4263 39.6223C46.7824 39.6223 47.88 40.7216 47.88 42.0778V42.0787H45.4108C43.3848 42.0865 41.7423 43.7307 41.7423 45.7618C41.7423 46.4386 42.2906 46.9887 42.9708 46.9887C43.6459 46.9887 44.1977 46.4386 44.1977 45.7618C44.1977 45.0842 44.7434 44.535 45.4219 44.5341H47.879V46.9896H45.4097C43.3838 46.9974 41.7412 48.6416 41.7412 50.6728C41.7412 51.3504 42.2896 51.8996 42.9698 51.8996C43.6448 51.8996 44.1966 51.3513 44.1966 50.6728C44.1966 49.9952 44.7424 49.4459 45.4209 49.4451H47.878V51.9006C47.878 53.2567 46.7795 54.357 45.4242 54.357H38.0484C36.6974 54.3518 35.6015 53.2533 35.6015 51.9006H35.5937C35.5937 51.223 35.0453 50.6738 34.3651 50.6738C33.6857 50.6738 33.1374 51.2221 33.1374 51.9006C33.1374 51.9015 33.1383 51.9015 33.1383 51.9015C33.1374 53.2559 32.0416 54.3516 30.6905 54.357H23.3156C21.9594 54.357 20.86 53.2559 20.86 51.9006V49.4451H23.3102C23.9896 49.4451 24.5379 49.9952 24.5379 50.6728C24.5379 51.3504 25.088 51.8996 25.7656 51.8996C26.4424 51.8996 26.9925 51.3513 26.9925 50.6728C26.9925 48.639 25.3466 46.9923 23.3144 46.9896H20.8634V44.5341H23.3189C23.9965 44.5341 24.5466 45.0825 24.5466 45.7618C24.5466 46.4386 25.095 46.9887 25.7734 46.9887C26.4537 46.9887 27.0012 46.4386 27.0012 45.7618C27.0012 43.7333 25.3639 42.0909 23.3407 42.0787V42.0778H23.2921V42.0787H20.8634V42.0778C20.8634 40.7216 21.9627 39.6223 23.3189 39.6223C23.9983 39.6223 24.5467 39.0739 24.5467 38.3954C24.5467 37.7161 23.9983 37.1677 23.3189 37.1677C20.6076 37.1677 18.4097 39.3655 18.4097 42.077V42.0778H15.9533C15.2757 42.0778 14.7256 42.6262 14.7256 43.3047C14.7256 43.9823 15.2757 44.5315 15.9533 44.5315V44.5324H18.4097V46.9879H15.9542H15.9533C15.2757 46.9879 14.7256 47.5363 14.7256 48.2148C14.7256 48.8924 15.2757 49.4416 15.9533 49.4416H15.9542V49.4425H18.4097V51.898H18.4106C18.4166 54.6052 20.6118 56.8088 23.3189 56.8088H25.7753C25.7849 59.5115 27.9792 61.7005 30.6846 61.7005H38.0622C40.7641 61.6927 42.9506 59.5079 42.961 56.8088H45.4261C48.1375 56.8088 50.3336 54.6058 50.3353 51.898V49.4425H52.7873V49.4416H52.7925C53.4701 49.4407 54.0193 48.8924 54.0193 48.2148L54.0196 48.2148ZM38.0504 59.2434H30.685C29.3358 59.2434 28.2408 58.1553 28.2295 56.8078H30.6859H30.6937H30.8021V56.8044C32.2242 56.7723 33.4962 56.1337 34.3733 55.1385C35.2635 56.1502 36.5642 56.7914 38.0141 56.8061V56.807H38.0523H38.0601H40.5069C40.4974 58.1553 39.3989 59.2434 38.0505 59.2434L38.0504 59.2434Z" fill="black"/>
</svg>
